# Blender v2.78 (sub 0) OBJ File: 'cube-3.blend'
# www.blender.org
mtllib cube-2.mtl
o Plane.024
v -0.967336 -0.991527 -1.013916
v -0.791245 -0.989857 -1.016664
v -0.986099 1.004466 -1.003293
v -0.810008 1.006136 -1.006041
vn -0.0157 0.0052 -0.9999
usemtl None
s off
f 1//1 3//1 4//1 2//1
o Plane.023
v 0.812507 -0.990388 -1.002873
v 0.988601 -0.990725 -1.005912
v 0.816436 1.005707 -0.996547
v 0.992529 1.005370 -0.999586
vn -0.0173 0.0032 -0.9998
usemtl None
s off
f 5//2 7//2 8//2 6//2
o Plane.022
v -0.990806 -0.805866 -0.998752
v -0.991297 -0.981791 -1.007040
v 1.005287 -0.811156 -1.004724
v 1.004796 -0.987081 -1.013012
vn -0.0029 0.0471 -0.9989
usemtl None
s off
f 9//3 11//3 12//3 10//3
o Plane.021
v -0.990245 1.009603 -1.004820
v -0.991706 0.833683 -1.013085
v 1.005795 0.993077 -1.006115
v 1.004333 0.817157 -1.014380
vn -0.0003 0.0469 -0.9989
usemtl None
s off
f 13//4 15//4 16//4 14//4
o Plane.020
v -0.990359 1.007847 1.018983
v -0.991592 0.831925 1.010731
v 1.005661 0.994476 1.005807
v 1.004428 0.818554 0.997555
vn -0.0063 0.0469 -0.9989
usemtl None
s off
f 17//5 19//5 20//5 18//5
o Plane.019
v -0.990806 -0.805866 1.014989
v -0.991297 -0.981791 1.006701
v 1.005287 -0.811156 1.009018
v 1.004796 -0.987081 1.000730
vn -0.0029 0.0471 -0.9989
usemtl None
s off
f 21//6 23//6 24//6 22//6
o Plane.018
v 0.812507 -0.990388 1.005375
v 0.988601 -0.990725 1.002336
v 0.816436 1.005707 1.011701
v 0.992529 1.005370 1.008661
vn -0.0173 0.0032 -0.9998
usemtl None
s off
f 25//7 27//7 28//7 26//7
o Plane.013
v -0.967336 -0.991527 1.007004
v -0.791245 -0.989857 1.004256
v -0.986099 1.004466 1.017627
v -0.810008 1.006136 1.014879
vn -0.0157 0.0052 -0.9999
usemtl None
s off
f 29//8 31//8 32//8 30//8
o Plane
v -0.967336 -0.991527 1.007004
v -0.791245 -0.989857 1.004256
v -0.986099 1.004466 1.017627
v -0.810008 1.006136 1.014879
vn 0.0157 -0.0052 0.9999
usemtl None
s off
f 33//9 34//9 36//9 35//9
o Plane.005
v 0.812507 -0.990388 1.005375
v 0.988601 -0.990725 1.002336
v 0.816436 1.005707 1.011701
v 0.992529 1.005370 1.008661
vn 0.0173 -0.0032 0.9998
usemtl None
s off
f 37//10 38//10 40//10 39//10
o Plane.006
v -0.990806 -0.805866 1.014989
v -0.991297 -0.981791 1.006701
v 1.005287 -0.811156 1.009018
v 1.004796 -0.987081 1.000730
vn 0.0029 -0.0471 0.9989
usemtl None
s off
f 41//11 42//11 44//11 43//11
o Plane.007
v -0.990359 1.007847 1.018983
v -0.991592 0.831925 1.010731
v 1.005661 0.994476 1.005807
v 1.004428 0.818554 0.997555
vn 0.0063 -0.0469 0.9989
usemtl None
s off
f 45//12 46//12 48//12 47//12
o Plane.008
v -0.990245 1.009603 -1.004820
v -0.991706 0.833683 -1.013085
v 1.005795 0.993077 -1.006115
v 1.004333 0.817157 -1.014380
vn 0.0003 -0.0469 0.9989
usemtl None
s off
f 49//13 50//13 52//13 51//13
o Plane.009
v -0.990806 -0.805866 -0.998752
v -0.991297 -0.981791 -1.007040
v 1.005287 -0.811156 -1.004724
v 1.004796 -0.987081 -1.013012
vn 0.0029 -0.0471 0.9989
usemtl None
s off
f 53//14 54//14 56//14 55//14
o Plane.010
v 0.812507 -0.990388 -1.002873
v 0.988601 -0.990725 -1.005912
v 0.816436 1.005707 -0.996547
v 0.992529 1.005370 -0.999586
vn 0.0173 -0.0032 0.9998
usemtl None
s off
f 57//15 58//15 60//15 59//15
o Plane.011
v -0.967336 -0.991527 -1.013916
v -0.791245 -0.989857 -1.016664
v -0.986099 1.004466 -1.003293
v -0.810008 1.006136 -1.006041
vn 0.0157 -0.0052 0.9999
usemtl None
s off
f 61//16 62//16 64//16 63//16
