# Blender v2.78 (sub 0) OBJ File: 'minicastle-full.blend'
# www.blender.org
mtllib smallchurch-5.mtl
o house_wall
v -3.545318 4.923023 2.989368
v -3.545318 0.101017 2.989367
v 2.836738 0.101017 2.989367
v 2.836738 4.923023 2.989368
v 2.836738 0.101018 -3.392689
v 2.836738 4.923024 -3.392688
v -3.545318 0.101018 -3.392689
v -3.545318 4.923024 -3.392688
vt 0.0000 0.8611
vt 0.0000 -3.7689
vt 3.0000 -3.7689
vt 3.0000 0.8611
vt 0.0000 0.8611
vt 0.0000 -3.7689
vt 3.0000 -3.7689
vt 3.0000 0.8611
vt 0.0000 0.8611
vt 0.0000 -3.7689
vt 3.0000 -3.7689
vt 3.0000 0.8611
vt 0.0000 0.8611
vt 0.0000 -3.7689
vt 3.0000 -3.7689
vt 3.0000 0.8611
vn 0.0000 -0.0000 1.0000
vn 1.0000 -0.0000 0.0000
vn 0.0000 0.0000 -1.0000
vn -1.0000 0.0000 0.0000
usemtl matt_norm_stone1
s off
f 1/1/1 2/2/1 3/3/1 4/4/1
f 4/5/2 3/6/2 5/7/2 6/8/2
f 6/9/3 5/10/3 7/11/3 8/12/3
f 8/13/4 7/14/4 2/15/4 1/16/4
o tower_roof
v 2.836860 10.934401 -0.201364
v 3.573762 8.545223 1.577674
v 4.198580 8.545223 1.160183
v 2.836963 10.934401 -0.201433
v 2.836615 10.934401 -0.201364
v 2.099714 8.545223 1.577674
v 2.836738 8.545223 1.724277
v 2.836738 10.934401 -0.201340
v 4.616070 8.545223 0.535365
v 2.837033 10.934401 -0.201537
v 2.837057 10.934401 -0.201659
v 4.762672 8.545223 -0.201659
v 4.616070 8.545223 -0.938682
v 2.837033 10.934401 -0.201781
v 2.836512 10.934401 -0.201433
v 1.474896 8.545223 1.160184
v 2.836512 10.934401 -0.201884
v 1.474896 8.545223 -1.563501
v 1.057405 8.545223 -0.938682
v 2.836443 10.934401 -0.201781
v 2.836738 10.934401 -0.201978
v 2.836738 8.545224 -2.127594
v 2.099714 8.545224 -1.980991
v 2.836615 10.934401 -0.201953
v 4.198579 8.545223 -1.563501
v 2.836963 10.934401 -0.201884
v 2.836419 10.934401 -0.201659
v 0.910802 8.545223 -0.201659
v 1.057405 8.545223 0.535365
v 2.836443 10.934401 -0.201537
v 3.573761 8.545224 -1.980991
v 2.836860 10.934401 -0.201953
vt 3.2500 1.0000
vt 3.2500 -1.0000
vt 3.5000 -1.0000
vt 3.5000 1.0000
vt 2.7500 1.0000
vt 2.7500 -1.0000
vt 3.0000 -1.0000
vt 3.0000 1.0000
vt 3.7500 -1.0000
vt 3.7500 1.0000
vt 0.0000 1.0000
vt 0.0000 -1.0000
vt 0.2500 -1.0000
vt 0.2500 1.0000
vt 2.5000 1.0000
vt 2.5000 -1.0000
vt 1.5000 1.0000
vt 1.5000 -1.0000
vt 1.7500 -1.0000
vt 1.7500 1.0000
vt 1.0000 1.0000
vt 1.0000 -1.0000
vt 1.2500 -1.0000
vt 1.2500 1.0000
vt 0.5000 -1.0000
vt 0.5000 1.0000
vt 2.0000 1.0000
vt 2.0000 -1.0000
vt 2.2500 -1.0000
vt 2.2500 1.0000
vt 0.7500 -1.0000
vt 0.7500 1.0000
vt 4.0000 -1.0000
vt 4.0000 1.0000
vn 0.4358 0.6201 0.6523
vn -0.1530 0.6201 0.7694
vn 0.6523 0.6201 0.4358
vn 0.7694 0.6201 -0.1530
vn -0.4358 0.6201 0.6523
vn -0.6523 0.6201 -0.4358
vn -0.1530 0.6201 -0.7694
vn 0.6523 0.6201 -0.4358
vn -0.7694 0.6201 0.1530
vn -0.4358 0.6201 -0.6523
vn 0.1530 0.6201 0.7694
vn 0.4358 0.6201 -0.6523
vn -0.6523 0.6201 0.4358
vn 0.7694 0.6201 0.1530
vn -0.7694 0.6201 -0.1530
vn 0.1530 0.6201 -0.7694
usemtl glos_norm_roof5
s off
f 9/17/5 10/18/5 11/19/5 12/20/5
f 13/21/6 14/22/6 15/23/6 16/24/6
f 12/20/7 11/19/7 17/25/7 18/26/7
f 19/27/8 20/28/8 21/29/8 22/30/8
f 23/31/9 24/32/9 14/22/9 13/21/9
f 25/33/10 26/34/10 27/35/10 28/36/10
f 29/37/11 30/38/11 31/39/11 32/40/11
f 22/30/12 21/29/12 33/41/12 34/42/12
f 35/43/13 36/44/13 37/45/13 38/46/13
f 32/40/14 31/39/14 26/34/14 25/33/14
f 16/24/15 15/23/15 10/18/15 9/17/15
f 34/42/16 33/41/16 39/47/16 40/48/16
f 38/46/17 37/45/17 24/32/17 23/31/17
f 18/26/18 17/25/18 20/49/18 19/50/18
f 28/36/19 27/35/19 36/44/19 35/43/19
f 40/48/20 39/47/20 30/38/20 29/37/20
o tower_tubus_2
v 4.326841 8.684430 -0.201659
v 4.432251 3.793101 -0.201660
v 4.310800 3.793101 -0.812236
v 4.310800 8.684430 -0.812235
v 2.226161 8.537682 1.272404
v 2.226161 2.390502 1.272403
v 2.836738 2.390502 1.393854
v 2.843519 8.537682 1.290945
v 4.310801 8.684430 0.408918
v 4.310801 3.793101 0.408917
v 3.447315 8.549919 -1.675721
v 3.447315 3.658590 -1.675722
v 2.836738 3.658590 -1.797174
v 2.843519 8.549919 -1.694263
v 2.226161 3.658590 -1.675722
v 2.226161 8.549919 -1.675721
v 3.447315 2.390502 1.272403
v 3.447315 8.537682 1.272404
vt -0.2400 1.1170
vt -0.2400 -3.5630
vt 0.1350 -3.5630
vt 0.1350 1.1170
vt 3.8850 1.1170
vt 3.8850 -3.5630
vt 4.2600 -3.5630
vt 4.2600 1.1170
vt 5.3850 1.1170
vt 5.3850 -3.5630
vt 5.7600 -3.5630
vt 5.7600 1.1170
vt 0.8850 1.1170
vt 0.8850 -3.5630
vt 1.2600 -3.5630
vt 1.2600 1.1170
vt 1.6350 -3.5630
vt 1.6350 1.1170
vt 4.6350 -3.5630
vt 4.6350 1.1170
vn 0.9937 0.0107 -0.1119
vn -0.1133 0.0084 0.9935
vn 0.9937 0.0107 0.1119
vn 0.1145 0.0104 -0.9934
vn -0.1133 0.0105 -0.9935
vn 0.1145 0.0083 0.9934
usemtl matt_norm_stone1
s off
f 41/51/21 42/52/21 43/53/21 44/54/21
f 45/55/22 46/56/22 47/57/22 48/58/22
f 49/59/23 50/60/23 42/61/23 41/62/23
f 51/63/24 52/64/24 53/65/24 54/66/24
f 54/66/25 53/65/25 55/67/25 56/68/25
f 48/58/26 47/57/26 57/69/26 58/70/26
o window3
v 2.214853 7.270456 -1.668374
v 2.214853 8.514149 -1.668374
v 2.214853 8.514149 -1.518760
v 2.214853 7.270456 -1.518760
v 3.445357 7.270456 -1.518760
v 3.445357 8.514149 -1.518760
v 3.445357 8.514149 -1.668374
v 3.445357 7.270456 -1.668374
vt 0.0000 0.0000
vt 0.0000 1.0000
vt 1.0000 1.0000
vt 1.0000 0.0000
vt 0.0000 0.0000
vt 0.0000 1.0000
vt 1.0000 1.0000
vt 1.0000 0.0000
vt 0.0000 1.0000
vt 1.0000 1.0000
vn 1.0000 -0.0000 0.0000
vn -1.0000 -0.0000 0.0000
vn 0.0000 1.0000 0.0000
usemtl glos_none_spec1
s off
f 59/71/27 60/72/27 61/73/27 62/74/27
f 63/75/28 64/76/28 65/77/28 66/78/28
f 59/71/29 62/79/29 63/80/29 66/78/29
o stair
v -3.018249 0.568746 0.975840
v -3.018249 0.739158 0.975840
v -3.870354 0.739158 0.975840
v -3.870354 0.568746 0.975840
v -3.018249 0.739158 -1.379160
v -3.870354 0.739158 -1.379160
v -3.870354 0.568746 -1.379160
v -3.018249 0.568746 -1.379160
vt 1.0000 0.0000
vt 1.0000 1.0000
vt 0.0000 1.0000
vt 0.0000 0.0000
vt 1.0000 0.0000
vt 1.0000 1.0000
vt 0.0000 1.0000
vt 0.0000 0.0000
vt 1.0000 0.0000
vt 1.0000 1.0000
vt 0.0000 1.0000
vt 0.0000 0.0000
vt 1.0000 0.0000
vt 1.0000 1.0000
vt 0.0000 0.0000
vn 0.0000 0.0000 1.0000
vn 0.0000 1.0000 0.0000
vn 0.0000 0.0000 -1.0000
vn -1.0000 0.0000 0.0000
usemtl matt_norm_stone10
s off
f 67/81/30 68/82/30 69/83/30 70/84/30
f 68/85/31 71/86/31 72/87/31 69/88/31
f 73/89/32 72/90/32 71/91/32 74/92/32
f 70/93/33 69/94/33 72/87/33 73/95/33
o tower_tubus_1
v 4.432251 8.772560 -0.201659
v 4.432251 8.504965 -0.201659
v 4.310800 8.504965 -0.812235
v 4.310800 8.772560 -0.812235
v 2.226161 8.772559 1.272404
v 2.226161 8.504965 1.272404
v 2.836738 8.504965 1.393855
v 2.836738 8.772559 1.393855
v 4.310801 8.772560 0.408918
v 4.310801 8.504965 0.408918
v 3.447315 8.772560 -1.675721
v 3.447315 8.504965 -1.675721
v 2.836738 8.504965 -1.797173
v 2.836738 8.772560 -1.797173
v 2.226161 8.504965 -1.675721
v 2.226161 8.772560 -1.675721
v 3.447315 8.504965 1.272404
v 3.447315 8.772559 1.272404
vt 0.0000 1.0000
vt 0.0000 0.7000
vt 0.3750 0.7000
vt 0.3750 1.0000
vt 4.1250 1.0000
vt 4.1250 0.7000
vt 4.5000 0.7000
vt 4.5000 1.0000
vt 5.6250 1.0000
vt 5.6250 0.7000
vt 6.0000 0.7000
vt 6.0000 1.0000
vt 1.1250 1.0000
vt 1.1250 0.7000
vt 1.5000 0.7000
vt 1.5000 1.0000
vt 1.8750 0.7000
vt 1.8750 1.0000
vt 4.8750 0.7000
vt 4.8750 1.0000
vn 0.9808 0.0000 -0.1951
vn -0.1951 0.0000 0.9808
vn 0.9808 0.0000 0.1951
vn 0.1951 0.0000 -0.9808
vn -0.1951 0.0000 -0.9808
vn 0.1951 0.0000 0.9808
usemtl matt_norm_stone1
s off
f 75/96/34 76/97/34 77/98/34 78/99/34
f 79/100/35 80/101/35 81/102/35 82/103/35
f 83/104/36 84/105/36 76/106/36 75/107/36
f 85/108/37 86/109/37 87/110/37 88/111/37
f 88/111/38 87/110/38 89/112/38 90/113/38
f 82/103/39 81/102/39 91/114/39 92/115/39
o base_tower
v 4.714345 0.126534 -0.969764
v 4.322775 4.046175 -0.807571
v 4.400090 4.046175 -0.201660
v 4.867131 0.126534 -0.201660
v 4.279249 0.126534 -1.620933
v 3.979554 4.046175 -1.321238
v 3.628081 0.126534 -2.056030
v 3.465887 4.046175 -1.664459
v 2.859976 0.126534 -2.208814
v 2.859976 4.046175 -1.784982
v 4.714345 0.126534 0.566445
v 4.322775 4.046175 0.404251
v 3.979554 4.046175 0.917918
v 4.279249 0.126534 1.217613
v 3.628081 0.126534 1.652709
v 3.465888 4.046175 1.261139
v 2.859976 4.046175 1.381663
v 2.859976 0.126534 1.805495
vt 0.3219 -1.9403
vt 0.3219 1.0297
vt 0.0000 1.0297
vt 0.0000 -1.9403
vt 0.6438 -1.9403
vt 0.6438 1.0297
vt 0.9656 -1.9403
vt 0.9656 1.0297
vt 1.2875 -1.9403
vt 1.2875 1.0297
vt 4.8281 -1.9403
vt 4.8281 1.0297
vt 4.5063 1.0297
vt 4.5063 -1.9403
vt 5.1500 -1.9403
vt 5.1500 1.0297
vt 4.1844 -1.9403
vt 4.1844 1.0297
vt 3.8625 1.0297
vt 3.8625 -1.9403
vn 0.9802 0.1108 -0.1642
vn 0.8268 0.1055 -0.5525
vn 0.5525 0.1055 -0.8268
vn 0.1940 0.1055 -0.9753
vn 0.8268 0.1055 0.5525
vn 0.9802 0.1108 0.1642
vn 0.1940 0.1055 0.9753
vn 0.5525 0.1055 0.8268
usemtl matt_norm_stone1
s off
f 93/116/40 94/117/40 95/118/40 96/119/40
f 97/120/41 98/121/41 94/117/41 93/116/41
f 99/122/42 100/123/42 98/121/42 97/120/42
f 101/124/43 102/125/43 100/123/43 99/122/43
f 103/126/44 104/127/44 105/128/44 106/129/44
f 96/130/45 95/131/45 104/127/45 103/126/45
f 107/132/46 108/133/46 109/134/46 110/135/46
f 106/129/47 105/128/47 108/133/47 107/132/47
o window2
v 4.164783 7.270456 0.413501
v 4.164783 8.514149 0.413501
v 4.323061 8.514149 0.413501
v 4.323061 7.270456 0.413501
v 4.164783 7.270456 -0.816818
v 4.323061 7.270456 -0.816818
v 4.323061 8.514149 -0.816818
v 4.164783 8.514149 -0.816818
vt 0.0000 0.0000
vt 0.0000 1.0000
vt 1.0000 1.0000
vt 1.0000 0.0000
vt 0.0000 0.0000
vt 0.0000 1.0000
vt 1.0000 1.0000
vt 1.0000 0.0000
vt 0.0000 0.0000
vt 0.0000 1.0000
vt 1.0000 1.0000
vt 1.0000 0.0000
vn 0.0000 0.0000 -1.0000
vn 0.0000 1.0000 0.0000
vn 0.0000 -0.0000 1.0000
usemtl glos_none_spec1
s off
f 111/136/48 112/137/48 113/138/48 114/139/48
f 115/140/49 111/141/49 114/142/49 116/143/49
f 116/144/50 117/145/50 118/146/50 115/147/50
o tower_tubus_3
v 3.964937 8.772079 0.926540
v 3.964937 2.390023 0.926539
v 4.310801 2.390023 0.408917
v 4.310801 8.772079 0.408918
v 4.310800 8.772079 -0.812235
v 4.310800 2.390024 -0.812236
v 3.964937 2.390024 -1.329858
v 3.964937 8.772079 -1.329857
v 3.447315 2.390024 -1.675722
v 3.447315 8.772079 -1.675721
v 1.708539 8.772079 0.926540
v 1.708539 2.390023 0.926539
v 2.226161 2.390023 1.272403
v 2.226161 8.772079 1.272404
v 3.447315 8.772079 1.272404
v 3.447315 2.390023 1.272403
v 2.226161 8.772079 -1.675721
v 2.226161 2.390024 -1.675722
v 1.708539 2.390024 -1.329858
v 1.708539 8.772079 -1.329857
v 1.362675 2.390024 -0.812236
v 1.362675 8.772079 -0.812235
v 1.241224 2.390024 -0.201660
v 1.241224 8.772079 -0.201659
v 1.362675 2.390023 0.408917
v 1.362675 8.772079 0.408918
vt 5.2500 1.0000
vt 5.2500 -5.0000
vt 5.6250 -5.0000
vt 5.6250 1.0000
vt 0.3750 1.0000
vt 0.3750 -5.0000
vt 0.7500 -5.0000
vt 0.7500 1.0000
vt 1.1250 -5.0000
vt 1.1250 1.0000
vt 3.7500 1.0000
vt 3.7500 -5.0000
vt 4.1250 -5.0000
vt 4.1250 1.0000
vt 4.8750 1.0000
vt 4.8750 -5.0000
vt 1.8750 1.0000
vt 1.8750 -5.0000
vt 2.2500 -5.0000
vt 2.2500 1.0000
vt 2.6250 -5.0000
vt 2.6250 1.0000
vt 3.0000 -5.0000
vt 3.0000 1.0000
vt 3.3750 -5.0000
vt 3.3750 1.0000
vn 0.8315 -0.0000 0.5556
vn 0.8315 0.0000 -0.5556
vn 0.5556 0.0000 -0.8315
vn -0.5556 -0.0000 0.8315
vn 0.5556 -0.0000 0.8315
vn -0.5556 0.0000 -0.8315
vn -0.8315 0.0000 -0.5556
vn -0.9808 0.0000 -0.1951
vn -0.9808 -0.0000 0.1951
vn -0.8315 -0.0000 0.5556
usemtl matt_norm_stone1
s off
f 119/148/51 120/149/51 121/150/51 122/151/51
f 123/152/52 124/153/52 125/154/52 126/155/52
f 126/155/53 125/154/53 127/156/53 128/157/53
f 129/158/54 130/159/54 131/160/54 132/161/54
f 133/162/55 134/163/55 120/149/55 119/148/55
f 135/164/56 136/165/56 137/166/56 138/167/56
f 138/167/57 137/166/57 139/168/57 140/169/57
f 140/169/58 139/168/58 141/170/58 142/171/58
f 142/171/59 141/170/59 143/172/59 144/173/59
f 144/173/60 143/172/60 130/159/60 129/158/60
o window1_1
v 3.440907 7.270456 1.205732
v 3.440907 8.514149 1.205732
v 2.223291 8.514149 1.205733
v 2.223291 7.270456 1.205733
vt 1.0000 0.0000
vt 1.0000 1.0000
vt 0.0000 1.0000
vt 0.0000 0.0000
vn 0.0000 -0.0000 1.0000
usemtl glos_none_spec1
s off
f 145/174/61 146/175/61 147/176/61 148/177/61
o door
v -2.734605 0.769463 0.779034
v -2.734605 4.704346 0.779034
v -3.659041 4.704346 0.779034
v -3.659041 0.769463 0.779034
v -2.734605 0.769464 -1.182355
v -3.659041 0.769464 -1.182355
v -3.659041 4.704346 -1.182354
v -2.734605 4.704346 -1.182354
vt 2.0000 0.0000
vt 2.0000 1.0000
vt 0.0000 1.0000
vt 0.0000 0.0000
vt 2.0000 0.0000
vt 2.0000 1.0000
vt 0.0000 1.0000
vt 0.0000 0.0000
vt 2.0000 0.0000
vt 2.0000 1.0000
vt 0.0000 1.0000
vt 0.0000 0.0000
vt 2.0000 0.0000
vt 2.0000 1.0000
vt 0.0000 1.0000
vt 2.0000 0.0000
vt 2.0000 1.0000
vt 0.0000 0.0000
vn 0.0000 -0.0000 1.0000
vn 0.0000 -1.0000 -0.0000
vn 0.0000 0.0000 -1.0000
vn -1.0000 0.0000 0.0000
vn 0.0000 1.0000 0.0000
usemtl glos_none_spec2
s off
f 149/178/62 150/179/62 151/180/62 152/181/62
f 153/182/63 149/183/63 152/184/63 154/185/63
f 154/186/64 155/187/64 156/188/64 153/189/64
f 152/190/65 151/191/65 155/192/65 154/185/65
f 150/193/66 156/194/66 155/192/66 151/195/66
o stair4
v -2.536378 0.106108 1.508440
v -2.536378 0.276520 1.508440
v -4.352225 0.276520 1.508440
v -4.352225 0.106108 1.508440
v -2.536378 0.276520 -1.911760
v -4.352225 0.276520 -1.911760
v -4.352225 0.106108 -1.911760
v -2.536378 0.106108 -1.911760
vt 1.0000 0.0000
vt 1.0000 1.0000
vt 0.0000 1.0000
vt 0.0000 0.0000
vt 1.0000 0.0000
vt 1.0000 1.0000
vt 0.0000 1.0000
vt 0.0000 0.0000
vt 1.0000 0.0000
vt 1.0000 1.0000
vt 0.0000 1.0000
vt 0.0000 0.0000
vt 1.0000 0.0000
vt 1.0000 1.0000
vt 0.0000 0.0000
vn 0.0000 0.0000 1.0000
vn 0.0000 1.0000 0.0000
vn 0.0000 0.0000 -1.0000
vn -1.0000 0.0000 0.0000
usemtl matt_norm_stone10
s off
f 157/196/67 158/197/67 159/198/67 160/199/67
f 158/200/68 161/201/68 162/202/68 159/203/68
f 163/204/69 162/205/69 161/206/69 164/207/69
f 160/208/70 159/209/70 162/202/70 163/210/70
o window3_1
v 2.186388 7.270456 -1.566128
v 2.186388 8.514149 -1.566128
v 3.492128 8.514149 -1.566128
v 3.492128 7.270456 -1.566128
vt 1.0000 0.0000
vt 1.0000 1.0000
vt 0.0000 1.0000
vt 0.0000 0.0000
vn 0.0000 0.0000 -1.0000
usemtl glos_none_spec1
s off
f 165/211/71 166/212/71 167/213/71 168/214/71
o window2_1
v 4.191172 7.270456 -0.829071
v 4.191172 8.514149 -0.829071
v 4.191172 8.514149 0.425754
v 4.191172 7.270456 0.425754
vt 1.0000 0.0000
vt 1.0000 1.0000
vt 0.0000 1.0000
vt 0.0000 0.0000
vn 1.0000 0.0000 0.0000
usemtl glos_none_spec1
s off
f 169/215/72 170/216/72 171/217/72 172/218/72
o house_roof
v -3.881093 4.745918 3.466727
v 3.172512 4.745918 3.466727
v -0.354290 8.027120 -0.201659
v 3.172512 4.745919 -3.870046
v -3.881093 4.745919 -3.870046
vt 0.0000 -2.0000
vt 3.0000 -2.0000
vt 1.5000 1.0000
vt 0.0000 -2.0000
vt 3.0000 -2.0000
vt 0.0000 -2.0000
vt 3.0000 -2.0000
vt 0.0000 -2.0000
vt 3.0000 -2.0000
vn 0.0000 0.7453 0.6667
vn 0.6812 0.7321 0.0000
vn 0.0000 0.7453 -0.6667
vn -0.6812 0.7321 0.0000
usemtl glos_norm_roof5
s off
f 173/219/73 174/220/73 175/221/73
f 174/222/74 176/223/74 175/221/74
f 176/224/75 177/225/75 175/221/75
f 177/226/76 173/227/76 175/221/76
o stair3
v -2.682940 0.276555 1.327263
v -2.682940 0.446967 1.327263
v -4.205663 0.446967 1.327263
v -4.205663 0.276555 1.327263
v -2.682940 0.446968 -1.730582
v -4.205663 0.446968 -1.730582
v -4.205663 0.276556 -1.730582
v -2.682940 0.276556 -1.730582
vt 1.0000 0.0000
vt 1.0000 1.0000
vt 0.0000 1.0000
vt 0.0000 0.0000
vt 1.0000 0.0000
vt 1.0000 1.0000
vt 0.0000 1.0000
vt 0.0000 0.0000
vt 1.0000 0.0000
vt 1.0000 1.0000
vt 0.0000 1.0000
vt 0.0000 0.0000
vt 1.0000 0.0000
vt 1.0000 1.0000
vt 0.0000 0.0000
vn 0.0000 -0.0000 1.0000
vn 0.0000 1.0000 0.0000
vn 0.0000 0.0000 -1.0000
vn -1.0000 0.0000 0.0000
usemtl matt_norm_stone10
s off
f 178/228/77 179/229/77 180/230/77 181/231/77
f 179/232/78 182/233/78 183/234/78 180/235/78
f 184/236/79 183/237/79 182/238/79 185/239/79
f 181/240/80 180/241/80 183/234/80 184/242/80
o stair2
v -2.839317 0.429914 1.144223
v -2.839317 0.600327 1.144223
v -4.049286 0.600327 1.144223
v -4.049286 0.429914 1.144223
v -2.839317 0.600327 -1.547542
v -4.049286 0.600327 -1.547542
v -4.049286 0.429914 -1.547542
v -2.839317 0.429914 -1.547542
vt 1.0000 0.0000
vt 1.0000 1.0000
vt 0.0000 1.0000
vt 0.0000 0.0000
vt 1.0000 0.0000
vt 1.0000 1.0000
vt 0.0000 1.0000
vt 0.0000 0.0000
vt 1.0000 0.0000
vt 1.0000 1.0000
vt 0.0000 1.0000
vt 0.0000 0.0000
vt 1.0000 0.0000
vt 1.0000 1.0000
vt 0.0000 0.0000
vn 0.0000 0.0000 1.0000
vn 0.0000 1.0000 0.0000
vn 0.0000 0.0000 -1.0000
vn -1.0000 0.0000 0.0000
usemtl matt_norm_stone10
s off
f 186/243/81 187/244/81 188/245/81 189/246/81
f 187/247/82 190/248/82 191/249/82 188/250/82
f 192/251/83 191/252/83 190/253/83 193/254/83
f 189/255/84 188/256/84 191/249/84 192/257/84
o window1
v 2.221818 7.270456 1.157968
v 2.221818 7.270455 1.273320
v 3.456506 7.270455 1.273320
v 3.456506 7.270456 1.157968
v 3.456506 8.514149 1.273320
v 3.456506 8.514149 1.157968
v 2.221818 8.514149 1.157968
v 2.221818 8.514149 1.273320
vt 0.0000 0.0000
vt 0.0000 1.0000
vt 1.0000 1.0000
vt 1.0000 0.0000
vt 0.0000 0.0000
vt 0.0000 1.0000
vt 1.0000 1.0000
vt 0.0000 1.0000
vt 1.0000 1.0000
vt 1.0000 0.0000
vn 0.0000 1.0000 0.0000
vn -1.0000 -0.0000 0.0000
vn 1.0000 -0.0000 0.0000
usemtl glos_none_spec1
s off
f 194/258/85 195/259/85 196/260/85 197/261/85
f 196/262/86 198/263/86 199/264/86 197/261/86
f 194/258/87 200/265/87 201/266/87 195/267/87
