# Blender v2.78 (sub 0) OBJ File: 'minicastle-full.blend'
# www.blender.org
mtllib smallchurch-0.mtl
o house_wall
v -3.545318 4.923023 2.989368
v -3.545318 0.101017 2.989367
v 2.836738 0.101017 2.989367
v 2.836738 4.923023 2.989368
v 2.836738 0.101018 -3.392689
v 2.836738 4.923024 -3.392688
v -3.545318 0.101018 -3.392689
v -3.545318 4.923024 -3.392688
vt 0.0000 0.8611
vt 0.0000 -3.7689
vt 3.0000 -3.7689
vt 3.0000 0.8611
vt 0.0000 0.8611
vt 0.0000 -3.7689
vt 3.0000 -3.7689
vt 3.0000 0.8611
vt 0.0000 0.8611
vt 0.0000 -3.7689
vt 3.0000 -3.7689
vt 3.0000 0.8611
vt 0.0000 0.8611
vt 0.0000 -3.7689
vt 3.0000 -3.7689
vt 3.0000 0.8611
vn 0.0000 -0.0000 1.0000
vn 1.0000 -0.0000 0.0000
vn 0.0000 0.0000 -1.0000
vn -1.0000 0.0000 0.0000
usemtl matt_norm_stone1
s off
f 1/1/1 2/2/1 3/3/1 4/4/1
f 4/5/2 3/6/2 5/7/2 6/8/2
f 6/9/3 5/10/3 7/11/3 8/12/3
f 8/13/4 7/14/4 2/15/4 1/16/4
