# Blender v2.78 (sub 0) OBJ File: 'minicastle-full.blend'
# www.blender.org
mtllib smallchurch-2.mtl
o house_wall
v -3.545318 4.923023 2.989368
v -3.545318 0.101017 2.989367
v 2.836738 0.101017 2.989367
v 2.836738 4.923023 2.989368
v 2.836738 0.101018 -3.392689
v 2.836738 4.923024 -3.392688
v -3.545318 0.101018 -3.392689
v -3.545318 4.923024 -3.392688
vt 0.0000 0.8611
vt 0.0000 -3.7689
vt 3.0000 -3.7689
vt 3.0000 0.8611
vt 0.0000 0.8611
vt 0.0000 -3.7689
vt 3.0000 -3.7689
vt 3.0000 0.8611
vt 0.0000 0.8611
vt 0.0000 -3.7689
vt 3.0000 -3.7689
vt 3.0000 0.8611
vt 0.0000 0.8611
vt 0.0000 -3.7689
vt 3.0000 -3.7689
vt 3.0000 0.8611
vn 0.0000 -0.0000 1.0000
vn 1.0000 -0.0000 0.0000
vn 0.0000 0.0000 -1.0000
vn -1.0000 0.0000 0.0000
usemtl matt_norm_stone1
s off
f 1/1/1 2/2/1 3/3/1 4/4/1
f 4/5/2 3/6/2 5/7/2 6/8/2
f 6/9/3 5/10/3 7/11/3 8/12/3
f 8/13/4 7/14/4 2/15/4 1/16/4
o tower_tubus_2
v 4.326841 8.684430 -0.201659
v 4.432251 3.793101 -0.201660
v 4.310800 3.793101 -0.812236
v 4.310800 8.684430 -0.812235
v 2.226161 8.537682 1.272404
v 2.226161 2.390502 1.272403
v 2.836738 2.390502 1.393854
v 2.843519 8.537682 1.290945
v 4.310801 8.684430 0.408918
v 4.310801 3.793101 0.408917
v 3.447315 8.549919 -1.675721
v 3.447315 3.658590 -1.675722
v 2.836738 3.658590 -1.797174
v 2.843519 8.549919 -1.694263
v 2.226161 3.658590 -1.675722
v 2.226161 8.549919 -1.675721
v 3.447315 2.390502 1.272403
v 3.447315 8.537682 1.272404
vt -0.2400 1.1170
vt -0.2400 -3.5630
vt 0.1350 -3.5630
vt 0.1350 1.1170
vt 3.8850 1.1170
vt 3.8850 -3.5630
vt 4.2600 -3.5630
vt 4.2600 1.1170
vt 5.3850 1.1170
vt 5.3850 -3.5630
vt 5.7600 -3.5630
vt 5.7600 1.1170
vt 0.8850 1.1170
vt 0.8850 -3.5630
vt 1.2600 -3.5630
vt 1.2600 1.1170
vt 1.6350 -3.5630
vt 1.6350 1.1170
vt 4.6350 -3.5630
vt 4.6350 1.1170
vn 0.9937 0.0107 -0.1119
vn -0.1133 0.0084 0.9935
vn 0.9937 0.0107 0.1119
vn 0.1145 0.0104 -0.9934
vn -0.1133 0.0105 -0.9935
vn 0.1145 0.0083 0.9934
usemtl matt_norm_stone1
s off
f 9/17/5 10/18/5 11/19/5 12/20/5
f 13/21/6 14/22/6 15/23/6 16/24/6
f 17/25/7 18/26/7 10/27/7 9/28/7
f 19/29/8 20/30/8 21/31/8 22/32/8
f 22/32/9 21/31/9 23/33/9 24/34/9
f 16/24/10 15/23/10 25/35/10 26/36/10
o tower_tubus_1
v 4.432251 8.772560 -0.201659
v 4.432251 8.504965 -0.201659
v 4.310800 8.504965 -0.812235
v 4.310800 8.772560 -0.812235
v 2.226161 8.772559 1.272404
v 2.226161 8.504965 1.272404
v 2.836738 8.504965 1.393855
v 2.836738 8.772559 1.393855
v 4.310801 8.772560 0.408918
v 4.310801 8.504965 0.408918
v 3.447315 8.772560 -1.675721
v 3.447315 8.504965 -1.675721
v 2.836738 8.504965 -1.797173
v 2.836738 8.772560 -1.797173
v 2.226161 8.504965 -1.675721
v 2.226161 8.772560 -1.675721
v 3.447315 8.504965 1.272404
v 3.447315 8.772559 1.272404
vt 0.0000 1.0000
vt 0.0000 0.7000
vt 0.3750 0.7000
vt 0.3750 1.0000
vt 4.1250 1.0000
vt 4.1250 0.7000
vt 4.5000 0.7000
vt 4.5000 1.0000
vt 5.6250 1.0000
vt 5.6250 0.7000
vt 6.0000 0.7000
vt 6.0000 1.0000
vt 1.1250 1.0000
vt 1.1250 0.7000
vt 1.5000 0.7000
vt 1.5000 1.0000
vt 1.8750 0.7000
vt 1.8750 1.0000
vt 4.8750 0.7000
vt 4.8750 1.0000
vn 0.9808 0.0000 -0.1951
vn -0.1951 0.0000 0.9808
vn 0.9808 0.0000 0.1951
vn 0.1951 0.0000 -0.9808
vn -0.1951 0.0000 -0.9808
vn 0.1951 0.0000 0.9808
usemtl matt_norm_stone1
s off
f 27/37/11 28/38/11 29/39/11 30/40/11
f 31/41/12 32/42/12 33/43/12 34/44/12
f 35/45/13 36/46/13 28/47/13 27/48/13
f 37/49/14 38/50/14 39/51/14 40/52/14
f 40/52/15 39/51/15 41/53/15 42/54/15
f 34/44/16 33/43/16 43/55/16 44/56/16
o base_tower
v 4.714345 0.126534 -0.969764
v 4.322775 4.046175 -0.807571
v 4.400090 4.046175 -0.201660
v 4.867131 0.126534 -0.201660
v 4.279249 0.126534 -1.620933
v 3.979554 4.046175 -1.321238
v 3.628081 0.126534 -2.056030
v 3.465887 4.046175 -1.664459
v 2.859976 0.126534 -2.208814
v 2.859976 4.046175 -1.784982
v 4.714345 0.126534 0.566445
v 4.322775 4.046175 0.404251
v 3.979554 4.046175 0.917918
v 4.279249 0.126534 1.217613
v 3.628081 0.126534 1.652709
v 3.465888 4.046175 1.261139
v 2.859976 4.046175 1.381663
v 2.859976 0.126534 1.805495
vt 0.3219 -1.9403
vt 0.3219 1.0297
vt 0.0000 1.0297
vt 0.0000 -1.9403
vt 0.6438 -1.9403
vt 0.6438 1.0297
vt 0.9656 -1.9403
vt 0.9656 1.0297
vt 1.2875 -1.9403
vt 1.2875 1.0297
vt 4.8281 -1.9403
vt 4.8281 1.0297
vt 4.5063 1.0297
vt 4.5063 -1.9403
vt 5.1500 -1.9403
vt 5.1500 1.0297
vt 4.1844 -1.9403
vt 4.1844 1.0297
vt 3.8625 1.0297
vt 3.8625 -1.9403
vn 0.9802 0.1108 -0.1642
vn 0.8268 0.1055 -0.5525
vn 0.5525 0.1055 -0.8268
vn 0.1940 0.1055 -0.9753
vn 0.8268 0.1055 0.5525
vn 0.9802 0.1108 0.1642
vn 0.1940 0.1055 0.9753
vn 0.5525 0.1055 0.8268
usemtl matt_norm_stone1
s off
f 45/57/17 46/58/17 47/59/17 48/60/17
f 49/61/18 50/62/18 46/58/18 45/57/18
f 51/63/19 52/64/19 50/62/19 49/61/19
f 53/65/20 54/66/20 52/64/20 51/63/20
f 55/67/21 56/68/21 57/69/21 58/70/21
f 48/71/22 47/72/22 56/68/22 55/67/22
f 59/73/23 60/74/23 61/75/23 62/76/23
f 58/70/24 57/69/24 60/74/24 59/73/24
o tower_tubus_3
v 3.964937 8.772079 0.926540
v 3.964937 2.390023 0.926539
v 4.310801 2.390023 0.408917
v 4.310801 8.772079 0.408918
v 4.310800 8.772079 -0.812235
v 4.310800 2.390024 -0.812236
v 3.964937 2.390024 -1.329858
v 3.964937 8.772079 -1.329857
v 3.447315 2.390024 -1.675722
v 3.447315 8.772079 -1.675721
v 1.708539 8.772079 0.926540
v 1.708539 2.390023 0.926539
v 2.226161 2.390023 1.272403
v 2.226161 8.772079 1.272404
v 3.447315 8.772079 1.272404
v 3.447315 2.390023 1.272403
v 2.226161 8.772079 -1.675721
v 2.226161 2.390024 -1.675722
v 1.708539 2.390024 -1.329858
v 1.708539 8.772079 -1.329857
v 1.362675 2.390024 -0.812236
v 1.362675 8.772079 -0.812235
v 1.241224 2.390024 -0.201660
v 1.241224 8.772079 -0.201659
v 1.362675 2.390023 0.408917
v 1.362675 8.772079 0.408918
vt 5.2500 1.0000
vt 5.2500 -5.0000
vt 5.6250 -5.0000
vt 5.6250 1.0000
vt 0.3750 1.0000
vt 0.3750 -5.0000
vt 0.7500 -5.0000
vt 0.7500 1.0000
vt 1.1250 -5.0000
vt 1.1250 1.0000
vt 3.7500 1.0000
vt 3.7500 -5.0000
vt 4.1250 -5.0000
vt 4.1250 1.0000
vt 4.8750 1.0000
vt 4.8750 -5.0000
vt 1.8750 1.0000
vt 1.8750 -5.0000
vt 2.2500 -5.0000
vt 2.2500 1.0000
vt 2.6250 -5.0000
vt 2.6250 1.0000
vt 3.0000 -5.0000
vt 3.0000 1.0000
vt 3.3750 -5.0000
vt 3.3750 1.0000
vn 0.8315 -0.0000 0.5556
vn 0.8315 0.0000 -0.5556
vn 0.5556 0.0000 -0.8315
vn -0.5556 -0.0000 0.8315
vn 0.5556 -0.0000 0.8315
vn -0.5556 0.0000 -0.8315
vn -0.8315 0.0000 -0.5556
vn -0.9808 0.0000 -0.1951
vn -0.9808 -0.0000 0.1951
vn -0.8315 -0.0000 0.5556
usemtl matt_norm_stone1
s off
f 63/77/25 64/78/25 65/79/25 66/80/25
f 67/81/26 68/82/26 69/83/26 70/84/26
f 70/84/27 69/83/27 71/85/27 72/86/27
f 73/87/28 74/88/28 75/89/28 76/90/28
f 77/91/29 78/92/29 64/78/29 63/77/29
f 79/93/30 80/94/30 81/95/30 82/96/30
f 82/96/31 81/95/31 83/97/31 84/98/31
f 84/98/32 83/97/32 85/99/32 86/100/32
f 86/100/33 85/99/33 87/101/33 88/102/33
f 88/102/34 87/101/34 74/88/34 73/87/34
o house_roof
v -3.881093 4.745918 3.466727
v 3.172512 4.745918 3.466727
v -0.354290 8.027120 -0.201659
v 3.172512 4.745919 -3.870046
v -3.881093 4.745919 -3.870046
vt 0.0000 -2.0000
vt 3.0000 -2.0000
vt 1.5000 1.0000
vt 0.0000 -2.0000
vt 3.0000 -2.0000
vt 0.0000 -2.0000
vt 3.0000 -2.0000
vt 0.0000 -2.0000
vt 3.0000 -2.0000
vn 0.0000 0.7453 0.6667
vn 0.6812 0.7321 0.0000
vn 0.0000 0.7453 -0.6667
vn -0.6812 0.7321 0.0000
usemtl glos_norm_roof5
s off
f 89/103/35 90/104/35 91/105/35
f 90/106/36 92/107/36 91/105/36
f 92/108/37 93/109/37 91/105/37
f 93/110/38 89/111/38 91/105/38
