# Blender v2.78 (sub 0) OBJ File: ''
# www.blender.org
mtllib smallchurch-full.mtl
o window3_1.004
v 2.186388 7.270456 -1.566127
v 2.186388 8.514149 -1.566127
v 3.492128 8.514149 -1.566127
v 3.492128 7.270456 -1.566127
vt 1.0000 0.0000
vt 1.0000 1.0000
vt 0.0000 1.0000
vt 0.0000 0.0000
vn 0.0000 0.0000 -1.0000
usemtl glos_none_spec1.004
s 1
f 1/1/1 2/2/1 3/3/1 4/4/1
o window1_1.004
v 3.440907 7.270456 1.205733
v 3.440907 8.514149 1.205733
v 2.223291 8.514149 1.205734
v 2.223291 7.270456 1.205734
vt 1.0000 0.0000
vt 1.0000 1.0000
vt 0.0000 1.0000
vt 0.0000 0.0000
vn 0.0000 -0.0000 1.0000
usemtl glos_none_spec1.004
s 1
f 5/5/2 6/6/2 7/7/2 8/8/2
o stair2.001
v -2.839317 0.429914 1.144223
v -2.839317 0.600327 1.144223
v -4.049286 0.600327 1.144223
v -4.049286 0.429914 1.144223
v -2.839317 0.600327 -1.547542
v -4.049286 0.600327 -1.547542
v -4.049286 0.429914 -1.547542
v -2.839317 0.429914 -1.547542
vt 1.0000 0.0000
vt 1.0000 1.0000
vt 0.0000 1.0000
vt 0.0000 0.0000
vt 1.0000 0.0000
vt 1.0000 1.0000
vt 0.0000 1.0000
vt 0.0000 0.0000
vt 1.0000 0.0000
vt 1.0000 1.0000
vt 0.0000 1.0000
vt 0.0000 0.0000
vt 1.0000 0.0000
vt 1.0000 1.0000
vt 0.0000 0.0000
vn 0.0000 0.0000 1.0000
vn 0.0000 1.0000 0.0000
vn 0.0000 0.0000 -1.0000
vn -1.0000 0.0000 0.0000
usemtl matt_norm_stone10.002
s 1
f 9/9/3 10/10/3 11/11/3 12/12/3
f 10/13/4 13/14/4 14/15/4 11/16/4
f 15/17/5 14/18/5 13/19/5 16/20/5
f 12/21/6 11/22/6 14/15/6 15/23/6
o door.001
v -2.734605 0.769463 0.779034
v -2.734605 4.704346 0.779035
v -3.659041 4.704346 0.779035
v -3.659041 0.769463 0.779034
v -2.734605 0.769464 -1.182355
v -3.659041 0.769464 -1.182355
v -3.659041 4.704346 -1.182353
v -2.734605 4.704346 -1.182353
vt 2.0000 0.0000
vt 2.0000 1.0000
vt 0.0000 1.0000
vt 0.0000 0.0000
vt 2.0000 0.0000
vt 2.0000 1.0000
vt 0.0000 1.0000
vt 0.0000 0.0000
vt 2.0000 0.0000
vt 2.0000 1.0000
vt 0.0000 1.0000
vt 0.0000 0.0000
vt 2.0000 0.0000
vt 2.0000 1.0000
vt 0.0000 1.0000
vt 2.0000 0.0000
vt 2.0000 1.0000
vt 0.0000 0.0000
vn 0.0000 -0.0000 1.0000
vn 0.0000 -1.0000 -0.0000
vn 0.0000 0.0000 -1.0000
vn -1.0000 -0.0000 0.0000
vn 0.0000 1.0000 0.0000
usemtl glos_none_spec2.001
s 1
f 17/24/7 18/25/7 19/26/7 20/27/7
f 21/28/8 17/29/8 20/30/8 22/31/8
f 22/32/9 23/33/9 24/34/9 21/35/9
f 20/36/10 19/37/10 23/38/10 22/31/10
f 18/39/11 24/40/11 23/38/11 19/41/11
o window2.004
v 4.164783 7.270456 0.413502
v 4.164783 8.514149 0.413502
v 4.323061 8.514149 0.413502
v 4.323061 7.270456 0.413502
v 4.164783 7.270456 -0.816817
v 4.323061 7.270456 -0.816817
v 4.323061 8.514149 -0.816817
v 4.164783 8.514149 -0.816817
vt 0.0000 0.0000
vt 0.0000 1.0000
vt 1.0000 1.0000
vt 1.0000 0.0000
vt 0.0000 0.0000
vt 0.0000 1.0000
vt 1.0000 1.0000
vt 1.0000 0.0000
vt 0.0000 0.0000
vt 0.0000 1.0000
vt 1.0000 1.0000
vt 1.0000 0.0000
vn 0.0000 0.0000 -1.0000
vn 0.0000 1.0000 0.0000
vn 0.0000 -0.0000 1.0000
usemtl glos_none_spec1.004
s 1
f 25/42/12 26/43/12 27/44/12 28/45/12
f 29/46/13 25/47/13 28/48/13 30/49/13
f 30/50/14 31/51/14 32/52/14 29/53/14
o stair.001
v -3.018249 0.568746 0.975840
v -3.018249 0.739158 0.975840
v -3.870354 0.739158 0.975840
v -3.870354 0.568746 0.975840
v -3.018249 0.739158 -1.379160
v -3.870354 0.739158 -1.379160
v -3.870354 0.568746 -1.379160
v -3.018249 0.568746 -1.379160
vt 1.0000 0.0000
vt 1.0000 1.0000
vt 0.0000 1.0000
vt 0.0000 0.0000
vt 1.0000 0.0000
vt 1.0000 1.0000
vt 0.0000 1.0000
vt 0.0000 0.0000
vt 1.0000 0.0000
vt 1.0000 1.0000
vt 0.0000 1.0000
vt 0.0000 0.0000
vt 1.0000 0.0000
vt 1.0000 1.0000
vt 0.0000 0.0000
vn 0.0000 0.0000 1.0000
vn 0.0000 1.0000 0.0000
vn 0.0000 0.0000 -1.0000
vn -1.0000 0.0000 0.0000
usemtl matt_norm_stone10.002
s 1
f 33/54/15 34/55/15 35/56/15 36/57/15
f 34/58/16 37/59/16 38/60/16 35/61/16
f 39/62/17 38/63/17 37/64/17 40/65/17
f 36/66/18 35/67/18 38/60/18 39/68/18
o vykyr3
v -1.546705 6.005078 -2.792736
v -1.546705 6.005078 -1.345611
v -0.354290 6.889090 -1.467052
v 0.838124 6.005078 -2.792736
v 0.838124 6.005078 -1.345611
v -1.546705 6.005078 -2.792736
v -1.546705 6.005078 -1.345611
v -0.354290 6.889090 -1.467052
v 0.838124 6.005078 -2.792736
v 0.838124 6.005078 -1.345611
vt 0.0000 0.0000
vt 1.0000 0.0000
vt 0.5000 1.0000
vt 0.0000 0.0000
vt 1.0000 0.0000
vt 0.0000 0.0000
vt 1.0000 0.0000
vt 0.0000 0.0000
vt 0.5000 1.0000
vt 1.0000 0.0000
vt 0.0000 0.0000
vt 1.0000 0.0000
vt 0.0000 0.0000
vt 1.0000 0.0000
vn -0.5955 0.8033 0.0000
vn 0.0000 0.8320 -0.5548
vn 0.5956 0.8033 0.0000
vn 0.5955 -0.8033 -0.0000
vn 0.0000 -0.8320 0.5548
vn -0.5956 -0.8033 -0.0000
usemtl Material.001
s 1
f 41/69/19 42/70/19 43/71/19
f 44/72/20 41/73/20 43/71/20
f 45/74/21 44/75/21 43/71/21
f 46/76/22 48/77/22 47/78/22
f 49/79/23 48/77/23 46/80/23
f 50/81/24 48/77/24 49/82/24
o window2_1.004
v 4.191172 7.270456 -0.829070
v 4.191172 8.514149 -0.829070
v 4.191172 8.514149 0.425755
v 4.191172 7.270456 0.425755
vt 1.0000 0.0000
vt 1.0000 1.0000
vt 0.0000 1.0000
vt 0.0000 0.0000
vn 1.0000 -0.0000 0.0000
usemtl glos_none_spec1.004
s 1
f 51/83/25 52/84/25 53/85/25 54/86/25
o vykyr
v -2.903697 6.005077 0.990756
v -1.456572 6.005077 0.990756
v -1.578014 6.889089 -0.201658
v -2.903697 6.005078 -1.394073
v -1.456572 6.005078 -1.394073
v -2.903697 6.005077 0.990756
v -1.456572 6.005077 0.990756
v -1.578014 6.889089 -0.201658
v -2.903697 6.005078 -1.394073
v -1.456572 6.005078 -1.394073
vt 0.0000 0.0000
vt 1.0000 0.0000
vt 0.5000 1.0000
vt 0.0000 0.0000
vt 1.0000 0.0000
vt 0.0000 0.0000
vt 1.0000 0.0000
vt 0.0000 0.0000
vt 0.5000 1.0000
vt 1.0000 0.0000
vt 0.0000 0.0000
vt 1.0000 0.0000
vt 0.0000 0.0000
vt 1.0000 0.0000
vn 0.0000 0.8033 0.5956
vn -0.5548 0.8320 0.0000
vn 0.0000 0.8033 -0.5956
vn 0.0000 -0.8033 -0.5956
vn 0.5548 -0.8320 -0.0000
vn 0.0000 -0.8033 0.5956
usemtl Material.001
s 1
f 55/87/26 56/88/26 57/89/26
f 58/90/27 55/91/27 57/89/27
f 59/92/28 58/93/28 57/89/28
f 60/94/29 62/95/29 61/96/29
f 63/97/30 62/95/30 60/98/30
f 64/99/31 62/95/31 63/100/31
o tower_roof.004
v 2.836860 10.934401 -0.201362
v 3.573762 8.545223 1.577675
v 4.198580 8.545223 1.160184
v 2.836963 10.934401 -0.201431
v 2.836615 10.934401 -0.201362
v 2.099714 8.545223 1.577675
v 2.836738 8.545223 1.724278
v 2.836738 10.934401 -0.201338
v 4.616070 8.545223 0.535366
v 2.837033 10.934401 -0.201535
v 2.837057 10.934401 -0.201657
v 4.762672 8.545223 -0.201658
v 4.616070 8.545223 -0.938681
v 2.837033 10.934401 -0.201779
v 2.836512 10.934401 -0.201431
v 1.474896 8.545223 1.160185
v 2.836512 10.934401 -0.201882
v 1.474896 8.545223 -1.563500
v 1.057405 8.545223 -0.938681
v 2.836443 10.934401 -0.201779
v 2.836738 10.934401 -0.201976
v 2.836738 8.545224 -2.127593
v 2.099714 8.545224 -1.980990
v 2.836615 10.934401 -0.201951
v 4.198579 8.545223 -1.563500
v 2.836963 10.934401 -0.201882
v 2.836419 10.934401 -0.201657
v 0.910802 8.545223 -0.201658
v 1.057405 8.545223 0.535366
v 2.836443 10.934401 -0.201535
v 3.573761 8.545224 -1.980990
v 2.836860 10.934401 -0.201951
v 2.836860 10.934401 -0.201362
v 3.573762 8.545223 1.577675
v 4.198580 8.545223 1.160184
v 2.836963 10.934401 -0.201431
v 2.836615 10.934401 -0.201362
v 2.099714 8.545223 1.577675
v 2.836738 8.545223 1.724278
v 2.836738 10.934401 -0.201338
v 4.616070 8.545223 0.535366
v 2.837033 10.934401 -0.201535
v 2.837057 10.934401 -0.201657
v 4.762672 8.545223 -0.201658
v 4.616070 8.545223 -0.938681
v 2.837033 10.934401 -0.201779
v 2.836512 10.934401 -0.201431
v 1.474896 8.545223 1.160185
v 2.836512 10.934401 -0.201882
v 1.474896 8.545223 -1.563500
v 1.057405 8.545223 -0.938681
v 2.836443 10.934401 -0.201779
v 2.836738 10.934401 -0.201976
v 2.836738 8.545224 -2.127593
v 2.099714 8.545224 -1.980990
v 2.836615 10.934401 -0.201951
v 4.198579 8.545223 -1.563500
v 2.836963 10.934401 -0.201882
v 2.836419 10.934401 -0.201657
v 0.910802 8.545223 -0.201658
v 1.057405 8.545223 0.535366
v 2.836443 10.934401 -0.201535
v 3.573761 8.545224 -1.980990
v 2.836860 10.934401 -0.201951
vt 3.2500 1.0000
vt 3.2500 -1.0000
vt 3.5000 -1.0000
vt 3.5000 1.0000
vt 2.7500 1.0000
vt 2.7500 -1.0000
vt 3.0000 -1.0000
vt 3.0000 1.0000
vt 3.7500 -1.0000
vt 3.7500 1.0000
vt 0.0000 1.0000
vt 0.0000 -1.0000
vt 0.2500 -1.0000
vt 0.2500 1.0000
vt 2.5000 1.0000
vt 2.5000 -1.0000
vt 1.5000 1.0000
vt 1.5000 -1.0000
vt 1.7500 -1.0000
vt 1.7500 1.0000
vt 1.0000 1.0000
vt 1.0000 -1.0000
vt 1.2500 -1.0000
vt 1.2500 1.0000
vt 0.5000 -1.0000
vt 0.5000 1.0000
vt 2.0000 1.0000
vt 2.0000 -1.0000
vt 2.2500 -1.0000
vt 2.2500 1.0000
vt 0.7500 -1.0000
vt 0.7500 1.0000
vt 4.0000 -1.0000
vt 4.0000 1.0000
vt 3.2500 1.0000
vt 3.5000 1.0000
vt 3.5000 -1.0000
vt 3.2500 -1.0000
vt 2.7500 1.0000
vt 3.0000 1.0000
vt 3.0000 -1.0000
vt 2.7500 -1.0000
vt 3.7500 1.0000
vt 3.7500 -1.0000
vt 0.0000 1.0000
vt 0.2500 1.0000
vt 0.2500 -1.0000
vt 0.0000 -1.0000
vt 2.5000 1.0000
vt 2.5000 -1.0000
vt 1.5000 1.0000
vt 1.7500 1.0000
vt 1.7500 -1.0000
vt 1.5000 -1.0000
vt 1.0000 1.0000
vt 1.2500 1.0000
vt 1.2500 -1.0000
vt 1.0000 -1.0000
vt 0.5000 1.0000
vt 0.5000 -1.0000
vt 2.0000 1.0000
vt 2.2500 1.0000
vt 2.2500 -1.0000
vt 2.0000 -1.0000
vt 0.7500 1.0000
vt 0.7500 -1.0000
vt 4.0000 1.0000
vt 4.0000 -1.0000
vn 0.4358 0.6201 0.6523
vn -0.1530 0.6201 0.7694
vn 0.6523 0.6201 0.4358
vn 0.7694 0.6201 -0.1530
vn -0.4358 0.6201 0.6523
vn -0.6523 0.6201 -0.4358
vn -0.1530 0.6201 -0.7694
vn 0.6523 0.6201 -0.4358
vn -0.7694 0.6201 0.1530
vn -0.4358 0.6201 -0.6523
vn 0.1530 0.6201 0.7694
vn 0.4358 0.6201 -0.6523
vn -0.6523 0.6201 0.4358
vn 0.7694 0.6201 0.1530
vn -0.7694 0.6201 -0.1530
vn 0.1530 0.6201 -0.7694
vn -0.4358 -0.6201 -0.6523
vn 0.1530 -0.6201 -0.7694
vn -0.6523 -0.6201 -0.4358
vn -0.7694 -0.6201 0.1530
vn 0.4358 -0.6201 -0.6523
vn 0.6523 -0.6201 0.4358
vn 0.1530 -0.6201 0.7694
vn -0.6523 -0.6201 0.4358
vn 0.7694 -0.6201 -0.1530
vn 0.4358 -0.6201 0.6523
vn -0.1530 -0.6201 -0.7694
vn -0.4358 -0.6201 0.6523
vn 0.6523 -0.6201 -0.4358
vn -0.7694 -0.6201 -0.1530
vn 0.7694 -0.6201 0.1530
vn -0.1530 -0.6201 0.7694
usemtl glos_norm_roof5.007
s 1
f 65/101/32 66/102/32 67/103/32 68/104/32
f 69/105/33 70/106/33 71/107/33 72/108/33
f 68/104/34 67/103/34 73/109/34 74/110/34
f 75/111/35 76/112/35 77/113/35 78/114/35
f 79/115/36 80/116/36 70/106/36 69/105/36
f 81/117/37 82/118/37 83/119/37 84/120/37
f 85/121/38 86/122/38 87/123/38 88/124/38
f 78/114/39 77/113/39 89/125/39 90/126/39
f 91/127/40 92/128/40 93/129/40 94/130/40
f 88/124/41 87/123/41 82/118/41 81/117/41
f 72/108/42 71/107/42 66/102/42 65/101/42
f 90/126/43 89/125/43 95/131/43 96/132/43
f 94/130/44 93/129/44 80/116/44 79/115/44
f 74/110/45 73/109/45 76/133/45 75/134/45
f 84/120/46 83/119/46 92/128/46 91/127/46
f 96/132/47 95/131/47 86/122/47 85/121/47
f 97/135/48 100/136/48 99/137/48 98/138/48
f 101/139/49 104/140/49 103/141/49 102/142/49
f 100/136/50 106/143/50 105/144/50 99/137/50
f 107/145/51 110/146/51 109/147/51 108/148/51
f 111/149/52 101/139/52 102/142/52 112/150/52
f 113/151/53 116/152/53 115/153/53 114/154/53
f 117/155/54 120/156/54 119/157/54 118/158/54
f 110/146/55 122/159/55 121/160/55 109/147/55
f 123/161/56 126/162/56 125/163/56 124/164/56
f 120/156/57 113/151/57 114/154/57 119/157/57
f 104/140/58 97/135/58 98/138/58 103/141/58
f 122/159/59 128/165/59 127/166/59 121/160/59
f 126/162/60 111/149/60 112/150/60 125/163/60
f 106/143/61 107/167/61 108/168/61 105/144/61
f 116/152/62 123/161/62 124/164/62 115/153/62
f 128/165/63 117/155/63 118/158/63 127/166/63
o base_tower.006
v 4.714345 0.126534 -0.969764
v 4.322775 4.046175 -0.807570
v 4.400090 4.046175 -0.201659
v 4.867131 0.126534 -0.201660
v 4.279249 0.126534 -1.620933
v 3.979554 4.046175 -1.321237
v 3.628081 0.126534 -2.056030
v 3.465887 4.046175 -1.664458
v 2.859976 0.126534 -2.208814
v 2.859976 4.046175 -1.784981
v 4.714345 0.126534 0.566445
v 4.322775 4.046175 0.404252
v 3.979554 4.046175 0.917919
v 4.279249 0.126534 1.217613
v 3.628081 0.126534 1.652709
v 3.465888 4.046175 1.261140
v 2.859976 4.046175 1.381664
v 2.859976 0.126534 1.805495
vt 0.3219 -1.9403
vt 0.3219 1.0297
vt 0.0000 1.0297
vt 0.0000 -1.9403
vt 0.6438 -1.9403
vt 0.6438 1.0297
vt 0.9656 -1.9403
vt 0.9656 1.0297
vt 1.2875 -1.9403
vt 1.2875 1.0297
vt 4.8281 -1.9403
vt 4.8281 1.0297
vt 4.5063 1.0297
vt 4.5063 -1.9403
vt 5.1500 -1.9403
vt 5.1500 1.0297
vt 4.1844 -1.9403
vt 4.1844 1.0297
vt 3.8625 1.0297
vt 3.8625 -1.9403
vn 0.9802 0.1108 -0.1642
vn 0.8268 0.1055 -0.5525
vn 0.5525 0.1055 -0.8268
vn 0.1940 0.1055 -0.9753
vn 0.8268 0.1055 0.5525
vn 0.9802 0.1108 0.1642
vn 0.1940 0.1055 0.9753
vn 0.5525 0.1055 0.8268
usemtl matt_norm_stone1.008
s 1
f 129/169/64 130/170/64 131/171/64 132/172/64
f 133/173/65 134/174/65 130/170/65 129/169/65
f 135/175/66 136/176/66 134/174/66 133/173/66
f 137/177/67 138/178/67 136/176/67 135/175/67
f 139/179/68 140/180/68 141/181/68 142/182/68
f 132/183/69 131/184/69 140/180/69 139/179/69
f 143/185/70 144/186/70 145/187/70 146/188/70
f 142/182/71 141/181/71 144/186/71 143/185/71
o stair4.002
v -2.536378 0.106108 1.508440
v -2.536378 0.276520 1.508440
v -4.352225 0.276520 1.508440
v -4.352225 0.106108 1.508440
v -2.536378 0.276520 -1.911760
v -4.352225 0.276520 -1.911760
v -4.352225 0.106108 -1.911760
v -2.536378 0.106108 -1.911760
vt 1.0000 0.0000
vt 1.0000 1.0000
vt 0.0000 1.0000
vt 0.0000 0.0000
vt 1.0000 0.0000
vt 1.0000 1.0000
vt 0.0000 1.0000
vt 0.0000 0.0000
vt 1.0000 0.0000
vt 1.0000 1.0000
vt 0.0000 1.0000
vt 0.0000 0.0000
vt 1.0000 0.0000
vt 1.0000 1.0000
vt 0.0000 0.0000
vn 0.0000 0.0000 1.0000
vn 0.0000 1.0000 0.0000
vn 0.0000 0.0000 -1.0000
vn -1.0000 0.0000 0.0000
usemtl matt_norm_stone10.002
s 1
f 147/189/72 148/190/72 149/191/72 150/192/72
f 148/193/73 151/194/73 152/195/73 149/196/73
f 153/197/74 152/198/74 151/199/74 154/200/74
f 150/201/75 149/202/75 152/195/75 153/203/75
o tower_tubus_1.006
v 4.432251 8.772560 -0.201658
v 4.432251 8.504965 -0.201658
v 4.310800 8.504965 -0.812234
v 4.310800 8.772560 -0.812234
v 2.226161 8.772559 1.272405
v 2.226161 8.504965 1.272405
v 2.836738 8.504965 1.393856
v 2.836738 8.772559 1.393856
v 4.310801 8.772560 0.408919
v 4.310801 8.504965 0.408919
v 3.447315 8.772560 -1.675720
v 3.447315 8.504965 -1.675720
v 2.836738 8.504965 -1.797172
v 2.836738 8.772560 -1.797172
v 2.226161 8.504965 -1.675720
v 2.226161 8.772560 -1.675720
v 3.447315 8.504965 1.272405
v 3.447315 8.772559 1.272405
vt 0.0000 1.0000
vt 0.0000 0.7000
vt 0.3750 0.7000
vt 0.3750 1.0000
vt 4.1250 1.0000
vt 4.1250 0.7000
vt 4.5000 0.7000
vt 4.5000 1.0000
vt 5.6250 1.0000
vt 5.6250 0.7000
vt 6.0000 0.7000
vt 6.0000 1.0000
vt 1.1250 1.0000
vt 1.1250 0.7000
vt 1.5000 0.7000
vt 1.5000 1.0000
vt 1.8750 0.7000
vt 1.8750 1.0000
vt 4.8750 0.7000
vt 4.8750 1.0000
vn 0.9808 -0.0000 -0.1951
vn -0.1951 0.0000 0.9808
vn 0.9808 0.0000 0.1951
vn 0.1951 0.0000 -0.9808
vn -0.1951 0.0000 -0.9808
vn 0.1951 0.0000 0.9808
usemtl matt_norm_stone1.008
s 1
f 155/204/76 156/205/76 157/206/76 158/207/76
f 159/208/77 160/209/77 161/210/77 162/211/77
f 163/212/78 164/213/78 156/214/78 155/215/78
f 165/216/79 166/217/79 167/218/79 168/219/79
f 168/219/80 167/218/80 169/220/80 170/221/80
f 162/211/81 161/210/81 171/222/81 172/223/81
o window1.004
v 2.221818 7.270456 1.157969
v 2.221818 7.270455 1.273321
v 3.456506 7.270455 1.273321
v 3.456506 7.270456 1.157969
v 3.456506 8.514149 1.273321
v 3.456506 8.514149 1.157969
v 2.221818 8.514149 1.157969
v 2.221818 8.514149 1.273321
vt 0.0000 0.0000
vt 0.0000 1.0000
vt 1.0000 1.0000
vt 1.0000 0.0000
vt 0.0000 0.0000
vt 0.0000 1.0000
vt 1.0000 1.0000
vt 0.0000 1.0000
vt 1.0000 1.0000
vt 1.0000 0.0000
vn 0.0000 1.0000 0.0000
vn -1.0000 -0.0000 0.0000
vn 1.0000 -0.0000 0.0000
usemtl glos_none_spec1.004
s 1
f 173/224/82 174/225/82 175/226/82 176/227/82
f 175/228/83 177/229/83 178/230/83 176/227/83
f 173/224/84 179/231/84 180/232/84 174/233/84
o window3.004
v 2.214853 7.270456 -1.668373
v 2.214853 8.514149 -1.668373
v 2.214853 8.514149 -1.518759
v 2.214853 7.270456 -1.518759
v 3.445357 7.270456 -1.518759
v 3.445357 8.514149 -1.518759
v 3.445357 8.514149 -1.668373
v 3.445357 7.270456 -1.668373
vt 0.0000 0.0000
vt 0.0000 1.0000
vt 1.0000 1.0000
vt 1.0000 0.0000
vt 0.0000 0.0000
vt 0.0000 1.0000
vt 1.0000 1.0000
vt 1.0000 0.0000
vt 0.0000 1.0000
vt 1.0000 1.0000
vn 1.0000 -0.0000 0.0000
vn -1.0000 -0.0000 0.0000
vn 0.0000 1.0000 0.0000
usemtl glos_none_spec1.004
s 1
f 181/234/85 182/235/85 183/236/85 184/237/85
f 185/238/86 186/239/86 187/240/86 188/241/86
f 181/234/87 184/242/87 185/243/87 188/241/87
o house_roof.007
v -3.881093 4.745917 3.466728
v 3.172512 4.745917 3.466728
v -0.354290 8.027120 -0.201658
v 3.172512 4.745920 -3.870045
v -3.881093 4.745920 -3.870045
v -3.881093 4.745917 3.466728
v 3.172512 4.745917 3.466728
v -0.354290 8.027120 -0.201658
v 3.172512 4.745920 -3.870045
v -3.881093 4.745920 -3.870045
vt 0.0000 -2.0000
vt 3.0000 -2.0000
vt 1.5000 1.0000
vt 0.0000 -2.0000
vt 3.0000 -2.0000
vt 0.0000 -2.0000
vt 3.0000 -2.0000
vt 0.0000 -2.0000
vt 3.0000 -2.0000
vt 0.0000 -2.0000
vt 1.5000 1.0000
vt 3.0000 -2.0000
vt 0.0000 -2.0000
vt 3.0000 -2.0000
vt 0.0000 -2.0000
vt 3.0000 -2.0000
vt 0.0000 -2.0000
vt 3.0000 -2.0000
vn 0.0000 0.7453 0.6667
vn 0.6812 0.7321 0.0000
vn 0.0000 0.7453 -0.6667
vn -0.6812 0.7321 0.0000
vn 0.0000 -0.7453 -0.6667
vn -0.6812 -0.7321 -0.0000
vn 0.0000 -0.7453 0.6667
vn 0.6812 -0.7321 -0.0000
usemtl glos_norm_roof5.007
s 1
f 189/244/88 190/245/88 191/246/88
f 190/247/89 192/248/89 191/246/89
f 192/249/90 193/250/90 191/246/90
f 193/251/91 189/252/91 191/246/91
f 194/253/92 196/254/92 195/255/92
f 195/256/93 196/254/93 197/257/93
f 197/258/94 196/254/94 198/259/94
f 198/260/95 196/254/95 194/261/95
o house_wall.008
v -3.545318 4.923023 2.989369
v -3.545318 0.101017 2.989367
v 2.836738 0.101017 2.989367
v 2.836738 4.923023 2.989369
v 2.836738 0.101019 -3.392689
v 2.836738 4.923025 -3.392687
v -3.545318 0.101019 -3.392689
v -3.545318 4.923025 -3.392687
vt 0.0000 0.8611
vt 0.0000 -3.7689
vt 3.0000 -3.7689
vt 3.0000 0.8611
vt 0.0000 0.8611
vt 0.0000 -3.7689
vt 3.0000 -3.7689
vt 3.0000 0.8611
vt 0.0000 0.8611
vt 0.0000 -3.7689
vt 3.0000 -3.7689
vt 3.0000 0.8611
vt 0.0000 0.8611
vt 0.0000 -3.7689
vt 3.0000 -3.7689
vt 3.0000 0.8611
vn 0.0000 -0.0000 1.0000
vn 1.0000 -0.0000 0.0000
vn 0.0000 0.0000 -1.0000
vn -1.0000 0.0000 0.0000
usemtl matt_norm_stone1.008
s 1
f 199/262/96 200/263/96 201/264/96 202/265/96
f 202/266/97 201/267/97 203/268/97 204/269/97
f 204/270/98 203/271/98 205/272/98 206/273/98
f 206/274/99 205/275/99 200/276/99 199/277/99
o vykyr2
v 0.838124 6.005076 2.389759
v 0.838124 6.005077 0.942634
v -0.354290 6.889089 1.064077
v -1.546705 6.005076 2.389759
v -1.546705 6.005077 0.942634
v 0.838124 6.005076 2.389759
v 0.838124 6.005077 0.942634
v -0.354290 6.889089 1.064077
v -1.546705 6.005076 2.389759
v -1.546705 6.005077 0.942634
vt 0.0000 0.0000
vt 1.0000 0.0000
vt 0.5000 1.0000
vt 0.0000 0.0000
vt 1.0000 0.0000
vt 0.0000 0.0000
vt 1.0000 0.0000
vt 0.0000 0.0000
vt 0.5000 1.0000
vt 1.0000 0.0000
vt 0.0000 0.0000
vt 1.0000 0.0000
vt 0.0000 0.0000
vt 1.0000 0.0000
vn 0.5956 0.8033 0.0000
vn 0.0000 0.8320 0.5548
vn -0.5956 0.8033 0.0000
vn -0.5956 -0.8033 -0.0000
vn 0.0000 -0.8320 -0.5548
vn 0.5956 -0.8033 -0.0000
usemtl Material.001
s 1
f 207/278/100 208/279/100 209/280/100
f 210/281/101 207/282/101 209/280/101
f 211/283/102 210/284/102 209/280/102
f 212/285/103 214/286/103 213/287/103
f 215/288/104 214/286/104 212/289/104
f 216/290/105 214/286/105 215/291/105
o stair3.001
v -2.682940 0.276555 1.327263
v -2.682940 0.446967 1.327263
v -4.205663 0.446967 1.327263
v -4.205663 0.276555 1.327263
v -2.682940 0.446968 -1.730582
v -4.205663 0.446968 -1.730582
v -4.205663 0.276556 -1.730582
v -2.682940 0.276556 -1.730582
vt 1.0000 0.0000
vt 1.0000 1.0000
vt 0.0000 1.0000
vt 0.0000 0.0000
vt 1.0000 0.0000
vt 1.0000 1.0000
vt 0.0000 1.0000
vt 0.0000 0.0000
vt 1.0000 0.0000
vt 1.0000 1.0000
vt 0.0000 1.0000
vt 0.0000 0.0000
vt 1.0000 0.0000
vt 1.0000 1.0000
vt 0.0000 0.0000
vn 0.0000 -0.0000 1.0000
vn 0.0000 1.0000 0.0000
vn 0.0000 0.0000 -1.0000
vn -1.0000 0.0000 0.0000
usemtl matt_norm_stone10.002
s 1
f 217/292/106 218/293/106 219/294/106 220/295/106
f 218/296/107 221/297/107 222/298/107 219/299/107
f 223/300/108 222/301/108 221/302/108 224/303/108
f 220/304/109 219/305/109 222/298/109 223/306/109
o tower_tubus_2.006
v 4.326841 7.281832 -0.201658
v 4.432251 2.390503 -0.201660
v 4.310800 2.390503 -0.812236
v 4.310800 7.281832 -0.812234
v 2.226161 7.281831 1.272405
v 2.226161 2.390502 1.272403
v 2.836738 2.390502 1.393854
v 2.843519 7.281831 1.290946
v 4.310801 7.281832 0.408919
v 4.310801 2.390502 0.408917
v 3.447315 7.281833 -1.675720
v 3.447315 2.390503 -1.675722
v 2.836738 2.390503 -1.797174
v 2.843519 7.281833 -1.694262
v 2.226161 2.390503 -1.675722
v 2.226161 7.281833 -1.675720
v 3.447315 2.390502 1.272403
v 3.447315 7.281831 1.272405
vt -0.2400 1.1170
vt -0.2400 -3.5630
vt 0.1350 -3.5630
vt 0.1350 1.1170
vt 3.8850 1.1170
vt 3.8850 -3.5630
vt 4.2600 -3.5630
vt 4.2600 1.1170
vt 5.3850 1.1170
vt 5.3850 -3.5630
vt 5.7600 -3.5630
vt 5.7600 1.1170
vt 0.8850 1.1170
vt 0.8850 -3.5630
vt 1.2600 -3.5630
vt 1.2600 1.1170
vt 1.6350 -3.5630
vt 1.6350 1.1170
vt 4.6350 -3.5630
vt 4.6350 1.1170
vn 0.9937 0.0107 -0.1119
vn -0.1133 0.0105 0.9935
vn 0.9937 0.0107 0.1119
vn 0.1145 0.0104 -0.9934
vn -0.1133 0.0105 -0.9935
vn 0.1145 0.0104 0.9934
usemtl matt_norm_stone1.008
s 1
f 225/307/110 226/308/110 227/309/110 228/310/110
f 229/311/111 230/312/111 231/313/111 232/314/111
f 233/315/112 234/316/112 226/317/112 225/318/112
f 235/319/113 236/320/113 237/321/113 238/322/113
f 238/322/114 237/321/114 239/323/114 240/324/114
f 232/314/115 231/313/115 241/325/115 242/326/115
o tower_tubus_3.006
v 3.964937 8.772079 0.926541
v 3.964937 2.390023 0.926539
v 4.310801 2.390023 0.408917
v 4.310801 8.772079 0.408919
v 4.310800 8.772079 -0.812234
v 4.310800 2.390024 -0.812236
v 3.964937 2.390024 -1.329858
v 3.964937 8.772079 -1.329856
v 3.447315 2.390024 -1.675722
v 3.447315 8.772079 -1.675720
v 1.708539 8.772079 0.926541
v 1.708539 2.390023 0.926539
v 2.226161 2.390023 1.272403
v 2.226161 8.772079 1.272405
v 3.447315 8.772079 1.272405
v 3.447315 2.390023 1.272403
v 2.226161 8.772079 -1.675720
v 2.226161 2.390024 -1.675722
v 1.708539 2.390024 -1.329858
v 1.708539 8.772079 -1.329856
v 1.362675 2.390024 -0.812236
v 1.362675 8.772079 -0.812234
v 1.241224 2.390024 -0.201660
v 1.241224 8.772079 -0.201658
v 1.362675 2.390023 0.408917
v 1.362675 8.772079 0.408919
vt 5.2500 1.0000
vt 5.2500 -5.0000
vt 5.6250 -5.0000
vt 5.6250 1.0000
vt 0.3750 1.0000
vt 0.3750 -5.0000
vt 0.7500 -5.0000
vt 0.7500 1.0000
vt 1.1250 -5.0000
vt 1.1250 1.0000
vt 3.7500 1.0000
vt 3.7500 -5.0000
vt 4.1250 -5.0000
vt 4.1250 1.0000
vt 4.8750 1.0000
vt 4.8750 -5.0000
vt 1.8750 1.0000
vt 1.8750 -5.0000
vt 2.2500 -5.0000
vt 2.2500 1.0000
vt 2.6250 -5.0000
vt 2.6250 1.0000
vt 3.0000 -5.0000
vt 3.0000 1.0000
vt 3.3750 -5.0000
vt 3.3750 1.0000
vn 0.8315 -0.0000 0.5556
vn 0.8315 0.0000 -0.5556
vn 0.5556 0.0000 -0.8315
vn -0.5556 -0.0000 0.8315
vn 0.5556 -0.0000 0.8315
vn -0.5556 0.0000 -0.8315
vn -0.8315 0.0000 -0.5556
vn -0.9808 0.0000 -0.1951
vn -0.9808 -0.0000 0.1951
vn -0.8315 -0.0000 0.5556
usemtl matt_norm_stone1.008
s 1
f 243/327/116 244/328/116 245/329/116 246/330/116
f 247/331/117 248/332/117 249/333/117 250/334/117
f 250/334/118 249/333/118 251/335/118 252/336/118
f 253/337/119 254/338/119 255/339/119 256/340/119
f 257/341/120 258/342/120 244/328/120 243/327/120
f 259/343/121 260/344/121 261/345/121 262/346/121
f 262/346/122 261/345/122 263/347/122 264/348/122
f 264/348/123 263/347/123 265/349/123 266/350/123
f 266/350/124 265/349/124 267/351/124 268/352/124
f 268/352/125 267/351/125 254/338/125 253/337/125
