# Blender v2.78 (sub 0) OBJ File: 'pyramid-3.blend'
# www.blender.org
mtllib pyramid-1.mtl
o Plane.007_Plane.041
v -0.876568 0.270176 1.008025
v -0.721672 0.270176 1.008025
v -0.876568 0.270176 -0.967350
v -0.721672 0.270176 -0.967350
vn 0.0000 -1.0000 0.0000
usemtl None
s off
f 1//1 3//1 4//1 2//1
o Plane.006_Plane.040
v 1.092137 0.287747 -0.824262
v 1.092351 0.285354 -0.979140
v -0.883232 0.283448 -0.826929
v -0.883018 0.281055 -0.981807
vn 0.0022 -0.9999 0.0155
usemtl None
s off
f 5//2 7//2 8//2 6//2
o Plane.005_Plane.039
v 1.087819 0.287422 1.053889
v 1.091254 0.285079 0.899049
v -0.887067 0.283137 1.010145
v -0.883632 0.280793 0.855305
vn 0.0018 -0.9999 0.0152
usemtl None
s off
f 9//3 11//3 12//3 10//3
o Plane.004_Plane.038
v 0.939291 0.270176 1.008025
v 1.094187 0.270176 1.008025
v 0.939291 0.270176 -0.967350
v 1.094187 0.270176 -0.967350
vn 0.0000 -1.0000 0.0000
usemtl None
s off
f 13//4 15//4 16//4 14//4
o Plane_Plane.034
v -0.876568 0.270176 1.008025
v -0.721672 0.270176 1.008025
v -0.876568 0.270176 -0.967350
v -0.721672 0.270176 -0.967350
vn 0.0000 1.0000 0.0000
usemtl None
s off
f 17//5 18//5 20//5 19//5
o Plane.001_Plane.035
v 0.939291 0.270176 1.008025
v 1.094187 0.270176 1.008025
v 0.939291 0.270176 -0.967350
v 1.094187 0.270176 -0.967350
vn 0.0000 1.0000 0.0000
usemtl None
s off
f 21//6 22//6 24//6 23//6
o Plane.002_Plane.036
v 1.092295 0.287422 1.053889
v 1.095729 0.285079 0.899049
v -0.882591 0.283137 1.010145
v -0.879156 0.280793 0.855305
vn -0.0018 0.9999 -0.0152
usemtl None
s off
f 25//7 26//7 28//7 27//7
o Plane.003_Plane.037
v 1.092137 0.287747 -0.824262
v 1.092351 0.285354 -0.979140
v -0.883232 0.283448 -0.826929
v -0.883018 0.281055 -0.981807
vn -0.0022 0.9999 -0.0155
usemtl None
s off
f 29//8 30//8 32//8 31//8
