# Blender v2.78 (sub 0) OBJ File: ''
# www.blender.org
mtllib tree-1.mtl
o LowPoly_Tree_06_lowpoly_tree_02_Mesh.000
v -0.988950 1.960330 1.201348
v -1.034245 1.875866 1.238629
v -0.838148 2.081855 1.380490
v -0.849458 2.130740 1.342183
v -0.926106 1.789190 1.153549
v -0.971040 1.817477 1.256596
v -1.090712 1.648610 1.272478
v -1.053004 1.616506 1.215023
v -1.067321 1.592560 1.140987
v -0.967884 1.716817 1.052958
v -1.116979 1.883921 0.995145
v -1.151681 1.805141 1.041796
v -1.165328 1.964153 1.126107
v -1.134323 1.997021 1.102924
v -1.128860 1.822441 1.161310
v -1.202731 1.666147 1.208610
v -1.150927 1.677082 1.265011
v -0.779970 2.036044 1.308289
v -0.794584 2.035968 1.366108
v -0.996235 1.916190 1.046351
v -1.185378 1.931077 0.782526
v -1.242100 1.911333 0.789651
v -1.132284 1.737944 0.991694
v -1.179076 1.613982 1.094866
v -1.210507 1.644790 1.137411
v -1.124531 1.985622 1.201002
v -1.162370 1.962892 1.171956
v -1.042103 1.744526 0.971065
v -1.119635 1.599185 1.091790
v -1.265364 1.857613 0.793065
v -1.137281 1.452390 1.289206
v -1.152056 1.429637 1.200505
v -1.310407 1.457243 1.290387
v -1.260228 1.475503 1.347681
v -1.188346 1.473818 1.353275
v -1.281685 1.420581 1.162706
v -1.317088 1.435806 1.216689
v -1.216683 1.418540 1.153709
v -1.199066 1.307570 1.434000
v -1.142102 1.317844 1.356227
v -1.160288 1.292039 1.249906
v -1.312927 1.227407 1.373199
v -1.267705 1.268096 1.430894
v -1.294766 1.213905 1.230531
v -1.322997 1.207256 1.294603
v -1.232436 1.246040 1.209120
v -1.115322 1.198974 1.486253
v -1.082700 1.249042 1.397285
v -1.104190 1.225921 1.281229
v -1.194428 1.058969 1.424407
v -1.159986 1.118497 1.485340
v -1.200489 1.071556 1.274382
v -1.211035 1.042392 1.342873
v -1.159602 1.141074 1.244686
v -0.234902 0.835951 0.686874
v -0.310918 0.570578 0.623373
v -0.396989 0.607751 0.488199
v -0.303847 0.887917 0.582554
v -1.008147 1.234279 1.414503
v -1.004927 1.161027 1.512244
v -0.875001 1.158162 1.501369
v -0.908960 1.239562 1.405635
v -0.953623 1.225320 1.283669
v -1.036420 1.214742 1.291420
v -1.025388 1.051302 1.510645
v -1.054843 0.980287 1.438661
v -0.908386 0.952696 1.423200
v -0.877726 1.034172 1.500350
v -1.079846 0.967331 1.351935
v -1.088204 1.011792 1.280701
v -0.974952 0.993700 1.254727
v -0.946146 0.938951 1.331179
v -1.071540 1.107682 1.247730
v -0.980001 1.110733 1.224470
v -0.771531 1.247246 1.341127
v -0.723750 1.168841 1.417910
v -0.578984 1.264740 1.188233
v -0.647652 1.269256 1.096868
v -0.829680 1.243348 1.235686
v -0.555525 1.177575 0.859022
v -0.543208 1.054157 0.891328
v -0.671304 1.038812 1.053815
v -0.691133 1.170120 1.034526
v -0.716413 1.053666 1.419610
v -0.744744 0.967186 1.355631
v -0.473024 0.992180 0.968816
v -0.398641 1.000823 1.045262
v -0.550522 0.999680 1.211989
v -0.608410 0.978566 1.129838
v -0.519022 1.083258 1.262128
v -0.792946 0.945956 1.267357
v -0.841980 1.004375 1.188588
v -0.527553 1.188081 1.254809
v -0.859786 1.134526 1.166595
v -0.403408 1.254949 0.986937
v -0.348936 1.176343 1.058580
v -0.489274 1.266286 0.902072
v -0.348504 1.075701 1.080711
v -0.254314 1.114723 0.905226
v -0.311498 1.185297 0.826890
v -0.404879 1.204124 0.752198
v -0.334625 0.960353 0.941224
v -0.261063 1.023191 0.952289
v -0.496719 1.032860 0.792120
v -0.425239 0.969171 0.872283
v -0.491978 1.139171 0.736009
v -0.282798 1.067861 0.698979
v -0.221066 1.007051 0.784878
v -0.426544 0.931134 0.511101
v -0.382923 1.098486 0.628463
v -0.229115 0.933583 0.862347
v -0.324008 0.895270 0.884595
v -0.347846 0.791727 0.858997
v -0.239375 0.790312 0.802418
v -0.427187 0.921306 0.822464
v -0.503101 0.982291 0.736565
v -0.551884 0.880495 0.703552
v -0.464079 0.832480 0.798701
v -0.490424 1.064908 0.645002
v -0.550989 0.932429 0.574543
v -0.563627 0.663794 0.425799
v -0.413102 0.608004 0.873456
v -0.308118 0.560946 0.783286
v -0.663686 0.682613 0.699088
v -0.546878 0.668130 0.807750
v -0.690309 0.699839 0.543141
v -0.723722 0.393524 0.424317
v -0.835808 0.438928 0.570019
v -0.618405 0.165498 0.462572
v -0.526962 0.336545 0.462131
v -0.417624 0.317352 0.613325
v -0.471591 0.159636 0.610214
v -0.462077 0.067373 0.600317
v -0.656761 0.067537 0.454009
v -0.887880 0.073658 0.483807
v -0.830798 0.204602 0.465669
v -0.809363 0.229526 0.883851
v -0.735227 0.384056 0.846332
v -0.802448 0.431529 0.729632
v -0.892585 0.238885 0.766934
v -0.946442 0.077540 0.786229
v -0.854510 0.076378 0.921136
v -0.701126 0.222222 0.985472
v -0.654505 0.377416 0.915884
v -0.646699 0.488582 0.853138
v -0.930797 0.235999 0.615336
v -0.987867 0.077603 0.632525
v -0.494239 0.372853 0.933463
v -0.401243 0.326928 0.800610
v -1.018415 1.836343 0.921231
v -1.197192 1.835226 0.748269
v -1.168936 1.891997 0.738226
v -1.088973 2.016154 1.125374
v -1.091515 2.018618 1.180411
v -0.837729 2.126983 1.274880
v -0.427197 0.174162 0.827554
v -0.523438 0.195824 1.006345
v -0.721845 0.077288 1.044152
v -0.512635 0.070753 1.054586
v -0.395477 0.071247 0.847877
v -0.896137 1.889972 1.110442
v -0.799036 1.866368 0.884335
v -0.845575 1.900240 0.851165
v -0.843040 1.763237 0.856135
v -0.806269 1.797752 0.893953
v -0.888005 1.864364 0.802887
v -0.893357 1.788699 0.815488
v -0.650188 1.862383 0.628965
v -0.704050 1.905528 0.582928
v -0.664524 1.775620 0.639186
v -0.762580 1.860205 0.546784
v -0.775431 1.779545 0.558035
v -0.725117 1.741478 0.599738
v -0.793084 2.090708 1.272766
v -0.644913 2.347132 1.257313
v -0.590214 2.279145 1.278665
v -0.601887 2.330322 1.410349
v -0.652028 2.388499 1.374959
v -0.674189 2.394290 1.307697
v -0.562392 2.274824 1.355239
v -1.218991 2.062827 1.288817
v -1.254319 2.049241 1.262706
v -1.264111 2.071671 1.238942
v -1.242307 2.107341 1.238167
v -1.208440 2.125201 1.255672
v -1.197641 2.105381 1.285158
v -1.271375 2.098903 1.466431
v -1.291793 2.039406 1.432928
v -1.379107 2.074252 1.389650
v -1.371167 2.127690 1.415495
v -1.344907 2.031621 1.402786
v -1.268345 2.074841 0.532101
v -1.286559 2.108369 0.590295
v -1.245270 1.824295 0.768289
v -1.404528 2.047025 0.589848
v -1.385862 2.012497 0.530836
v -1.316521 2.023168 0.503794
v -1.429120 2.317683 0.393827
v -1.344112 2.307772 0.365081
v -1.352473 2.094549 0.610343
v -1.283298 2.344142 0.505705
v -1.367546 2.354672 0.534666
v -1.447899 2.334138 0.481496
v -1.266251 2.327623 0.422651
v -1.283284 2.529779 0.358288
v -1.244213 2.542154 0.432671
v -1.258925 2.521291 0.482768
v -1.305095 2.559240 0.487705
v -1.381637 2.554378 0.453922
v -0.454228 1.800969 0.464302
v -1.411434 2.502999 0.516826
v -1.208897 2.437599 0.342999
v -1.141123 2.496262 0.164342
v -0.535876 1.757487 0.341589
v -0.489684 1.691705 0.492208
v -0.492231 1.818943 0.373271
v -0.559748 1.692209 0.362805
v -0.543032 1.653855 0.419760
vn -0.8130 0.4298 0.3928
vn 0.7379 -0.4116 0.5348
vn 0.8087 -0.5848 0.0628
vn -0.8622 0.2229 -0.4549
vn -0.6966 0.4838 0.5299
vn -0.0847 0.1673 0.9823
vn 0.6587 -0.6609 0.3597
vn -0.3370 0.8904 0.3059
vn -0.8794 -0.0061 -0.4760
vn -0.9100 0.4098 0.0629
vn -0.5491 -0.1838 0.8153
vn 0.4037 -0.7109 -0.5759
vn -0.1580 -0.5871 -0.7939
vn -0.7291 0.4968 0.4707
vn 0.8841 -0.4667 -0.0241
vn -0.6861 0.5523 0.4735
vn 0.0002 0.3983 0.9173
vn -0.7686 0.1746 -0.6154
vn -0.8955 0.4431 -0.0415
vn 0.5530 -0.5221 -0.6493
vn -0.1284 -0.2632 -0.9562
vn 0.7809 0.2424 0.5757
vn 0.9844 -0.1070 -0.1397
vn -0.8035 0.2273 0.5502
vn -0.1641 0.4030 0.9004
vn -0.8777 -0.1173 -0.4646
vn -0.9941 0.0517 0.0952
vn 0.5998 -0.2975 -0.7428
vn -0.1555 -0.2946 -0.9429
vn 0.5090 0.6849 0.5213
vn 0.7981 0.5427 -0.2618
vn -0.6848 -0.2610 0.6804
vn -0.2507 0.2051 0.9461
vn -0.7165 -0.5918 -0.3694
vn -0.8295 -0.4982 0.2525
vn 0.4937 0.0323 -0.8690
vn -0.0994 -0.3645 -0.9259
vn 0.8202 -0.0909 -0.5648
vn 0.1037 0.8223 0.5595
vn 0.0450 0.7845 0.6185
vn -0.0961 0.9895 -0.1078
vn 0.2150 0.9527 -0.2147
vn -0.3989 -0.5510 0.7330
vn -0.0417 -0.6901 0.7225
vn 0.0747 -0.0186 0.9970
vn -0.1840 0.0501 0.9816
vn -0.4167 -0.8015 -0.4289
vn -0.2503 -0.8317 -0.4957
vn -0.1666 -0.9650 0.2026
vn -0.4931 -0.8279 0.2673
vn 0.1685 0.3115 -0.9352
vn -0.1903 0.4563 -0.8692
vn -0.2437 -0.2638 -0.9333
vn -0.1049 -0.3202 -0.9415
vn 0.2536 0.7666 0.5899
vn -0.0752 0.9958 0.0516
vn -0.7619 -0.2196 -0.6093
vn -0.1104 0.9935 -0.0294
vn 0.3649 -0.6707 0.6457
vn 0.1344 -0.9882 0.0733
vn 0.5488 -0.5903 0.5920
vn 0.4642 0.0115 0.8857
vn -0.1833 -0.8358 -0.5174
vn 0.3753 0.7472 0.5485
vn -0.2166 -0.8441 -0.4905
vn 0.1218 -0.9836 0.1328
vn -0.4121 0.5298 -0.7412
vn 0.5238 0.7372 0.4268
vn -0.5609 0.5749 -0.5956
vn -0.4038 -0.2248 -0.8868
vn 0.0708 0.9971 0.0276
vn 0.7315 0.1279 0.6697
vn 0.5827 -0.5977 0.5507
vn -0.5778 -0.2078 -0.7893
vn -0.3600 -0.8565 -0.3699
vn 0.6239 0.0769 0.7777
vn -0.6135 0.6274 -0.4795
vn 0.7184 0.6809 0.1424
vn 0.3343 0.9207 -0.2014
vn 0.4977 -0.6435 0.5816
vn 0.8570 0.1494 0.4932
vn -0.5924 -0.7989 -0.1045
vn -0.1806 -0.9622 0.2038
vn -0.4936 0.6944 -0.5235
vn -0.8997 -0.1823 -0.3965
vn 0.8460 0.4826 -0.2265
vn 0.8590 0.2020 -0.4704
vn 0.5833 0.3760 -0.7200
vn 0.5435 0.6794 -0.4929
vn 0.3921 -0.5736 0.7192
vn 0.3931 -0.3491 0.8507
vn 0.9965 -0.0831 0.0134
vn 0.9711 0.0820 0.2241
vn -0.8142 -0.3907 0.4294
vn -0.7043 0.1076 0.7017
vn -0.5009 -0.0633 0.8632
vn -0.5170 -0.6078 0.6028
vn -0.3542 0.6974 -0.6230
vn -0.3364 0.5811 -0.7410
vn -0.9197 0.3578 0.1617
vn -0.9971 0.0706 -0.0273
vn 0.4467 0.1038 -0.8886
vn 0.5289 -0.1810 0.8291
vn 0.9608 -0.2729 -0.0489
vn -0.6107 0.3372 0.7165
vn -0.3679 0.2175 0.9041
vn -0.4798 0.4422 -0.7578
vn -0.8543 0.4822 0.1942
vn -0.8507 0.4874 0.1968
vn -0.8542 0.4820 0.1950
vn -0.6429 0.3370 -0.6879
vn 0.7093 -0.3086 -0.6338
vn 0.6519 -0.0253 -0.7579
vn -0.0750 -0.0104 -0.9971
vn 0.0504 -0.1426 -0.9885
vn -0.6969 0.4501 0.5583
vn -0.7655 0.3393 0.5466
vn -0.5777 0.4587 0.6751
vn -0.5671 0.4347 0.6996
vn -0.7531 0.2541 -0.6068
vn -0.7919 0.2441 -0.5597
vn -0.9099 0.3424 0.2342
vn -0.8690 0.4498 0.2064
vn -0.8471 0.4927 0.1995
vn -0.6225 0.4651 0.6294
vn -0.2196 0.3727 0.9016
vn 0.7078 -0.1491 0.6905
vn 0.9237 -0.3796 -0.0511
vn 0.7585 -0.3026 -0.5771
vn 0.2417 -0.0803 -0.9670
vn 0.2357 -0.9673 0.0936
vn 0.6152 -0.4701 -0.6329
vn 0.5838 0.7897 -0.1884
vn -0.6931 0.7017 -0.1650
vn 0.8560 0.0133 0.5169
vn -0.0437 0.3692 0.9283
vn -0.0665 0.4060 0.9114
vn -0.6310 0.3606 0.6869
vn 0.8433 0.2928 0.4507
vn 0.9534 0.1889 -0.2351
vn 0.9580 -0.2565 -0.1286
vn 0.3200 0.9422 0.0997
vn 0.6111 -0.7554 0.2366
vn -0.6715 -0.1538 -0.7249
vn 0.4544 0.8538 0.2541
vn 0.8663 -0.0569 0.4964
vn -0.9026 0.0397 -0.4287
vn 0.9098 -0.0726 0.4086
vn -0.0932 -0.9445 -0.3151
vn -0.4510 0.8108 -0.3731
vn -0.4385 -0.8864 -0.1480
vn 0.3972 -0.8749 0.2769
vn -0.4776 0.8448 -0.2413
vn 0.2797 -0.2723 -0.9207
vn -0.4708 0.3007 0.8294
vn -0.3619 0.2452 -0.8994
vn 0.5022 0.4060 -0.7635
vn 0.9041 -0.2669 -0.3338
vn -0.3007 -0.2766 0.9127
vn -0.8261 0.5589 0.0725
vn 0.3206 -0.3426 0.8831
vn 0.7450 -0.6602 -0.0948
vn -0.0844 -0.7771 0.6237
vn -0.7531 -0.6525 -0.0841
vn -0.0267 0.7593 -0.6502
vn 0.0726 0.4015 0.9130
vn 0.1068 0.6861 -0.7196
vn -0.9637 -0.2057 0.1702
vn 0.8336 -0.4392 0.3351
vn -0.7220 0.3999 -0.5647
vn 0.6985 0.7113 0.0778
vn -0.6364 0.2333 -0.7353
vn 0.5998 -0.1815 0.7793
vn -0.5959 -0.6613 -0.4555
vn 0.2372 -0.9714 -0.0039
vn 0.8861 0.4626 -0.0280
vn -0.8337 -0.5490 0.0589
vn -0.0855 -0.8073 -0.5839
vn 0.0079 -0.9278 -0.3729
vn -0.8252 -0.5081 0.2468
vn 0.6890 0.5820 -0.4319
vn -0.3045 -0.4332 -0.8483
vn 0.2900 0.3006 0.9086
vn -0.5558 0.2110 0.8041
vn 0.6781 -0.3710 -0.6345
vn -0.6091 0.3316 0.7204
vn -0.0368 0.7066 0.7066
vn 0.7578 -0.1391 -0.6375
vn 0.9679 -0.1072 0.2274
vn -0.9620 -0.2119 -0.1719
vn 0.9734 0.0753 0.2163
vn 0.6466 -0.2943 -0.7038
vn -0.4993 0.2943 0.8149
vn 0.2878 0.1088 0.9515
vn 0.7724 -0.1303 0.6216
usemtl Material.001
s 1
f 1//1 2//1 3//1 4//1
f 5//2 6//2 7//2 8//2
f 5//3 8//3 9//3 10//3
f 11//4 12//4 13//4 14//4
f 2//5 15//5 16//5 17//5
f 2//6 17//6 7//6 6//6
f 6//7 5//7 18//7 19//7
f 11//8 20//8 21//8 22//8
f 12//9 23//9 24//9 25//9
f 12//10 25//10 16//10 15//10
f 15//11 2//11 26//11 27//11
f 28//12 10//12 9//12 29//12
f 28//13 29//13 24//13 23//13
f 12//14 11//14 22//14 30//14
f 9//15 8//15 31//15 32//15
f 16//16 33//16 34//16 17//16
f 7//17 17//17 34//17 35//17
f 24//18 36//18 37//18 25//18
f 16//19 25//19 37//19 33//19
f 9//20 32//20 38//20 29//20
f 24//21 29//21 38//21 36//21
f 35//22 39//22 40//22 31//22
f 32//23 31//23 40//23 41//23
f 33//24 42//24 43//24 34//24
f 35//25 34//25 43//25 39//25
f 36//26 44//26 45//26 37//26
f 33//27 37//27 45//27 42//27
f 32//28 41//28 46//28 38//28
f 36//29 38//29 46//29 44//29
f 39//30 47//30 48//30 40//30
f 41//31 40//31 48//31 49//31
f 42//32 50//32 51//32 43//32
f 39//33 43//33 51//33 47//33
f 44//34 52//34 53//34 45//34
f 42//35 45//35 53//35 50//35
f 41//36 49//36 54//36 46//36
f 44//37 46//37 54//37 52//37
f 55//38 56//38 57//38 58//38
f 59//39 48//39 47//39 60//39
f 59//40 60//40 61//40 62//40
f 59//41 62//41 63//41 64//41
f 59//42 64//42 49//42 48//42
f 65//43 51//43 50//43 66//43
f 65//44 66//44 67//44 68//44
f 65//45 68//45 61//45 60//45
f 65//46 60//46 47//46 51//46
f 69//47 53//47 52//47 70//47
f 69//48 70//48 71//48 72//48
f 69//49 72//49 67//49 66//49
f 69//50 66//50 50//50 53//50
f 73//51 54//51 49//51 64//51
f 73//52 64//52 63//52 74//52
f 73//53 74//53 71//53 70//53
f 73//54 70//54 52//54 54//54
f 75//55 62//55 61//55 76//55
f 77//56 78//56 79//56 75//56
f 80//57 81//57 82//57 83//57
f 75//58 79//58 63//58 62//58
f 84//59 68//59 67//59 85//59
f 86//60 87//60 88//60 89//60
f 90//61 84//61 85//61 88//61
f 84//62 76//62 61//62 68//62
f 91//63 72//63 71//63 92//63
f 77//64 75//64 76//64 93//64
f 89//65 91//65 92//65 82//65
f 91//66 85//66 67//66 72//66
f 94//67 74//67 63//67 79//67
f 95//68 77//68 93//68 96//68
f 83//69 94//69 79//69 78//69
f 94//70 92//70 71//70 74//70
f 95//71 97//71 78//71 77//71
f 98//72 96//72 93//72 90//72
f 98//73 90//73 88//73 87//73
f 83//74 82//74 92//74 94//74
f 86//75 89//75 82//75 81//75
f 90//76 93//76 76//76 84//76
f 80//77 83//77 78//77 97//77
f 95//78 96//78 99//78 100//78
f 95//79 100//79 101//79 97//79
f 98//80 87//80 102//80 103//80
f 98//81 103//81 99//81 96//81
f 86//82 81//82 104//82 105//82
f 86//83 105//83 102//83 87//83
f 80//84 97//84 101//84 106//84
f 80//85 106//85 104//85 81//85
f 107//86 100//86 99//86 108//86
f 107//87 108//87 55//87 58//87
f 107//88 58//88 109//88 110//88
f 107//89 110//89 101//89 100//89
f 111//90 103//90 102//90 112//90
f 111//91 112//91 113//91 114//91
f 111//92 114//92 55//92 108//92
f 111//93 108//93 99//93 103//93
f 115//94 105//94 104//94 116//94
f 115//95 116//95 117//95 118//95
f 115//96 118//96 113//96 112//96
f 115//97 112//97 102//97 105//97
f 119//98 106//98 101//98 110//98
f 119//99 110//99 109//99 120//99
f 119//100 120//100 117//100 116//100
f 119//101 116//101 104//101 106//101
f 109//102 58//102 57//102 121//102
f 113//103 122//103 123//103 114//103
f 55//104 114//104 123//104 56//104
f 117//105 124//105 125//105 118//105
f 113//106 118//106 125//106 122//106
f 109//107 121//107 126//107 120//107
f 117//108 120//108 126//109 124//110
f 121//111 127//111 128//111 126//111
f 129//112 130//112 131//112 132//112
f 129//113 132//113 133//113 134//113
f 129//114 134//114 135//114 136//114
f 129//115 136//115 127//115 130//115
f 137//116 138//116 139//116 140//116
f 137//117 140//117 141//117 142//117
f 138//118 137//118 143//118 144//118
f 145//119 138//119 144//119
f 146//120 128//120 127//120 136//120
f 146//121 136//121 135//121 147//121
f 146//122 147//122 141//122 140//122
f 146//123 140//123 139//123 128//123
f 124//110 126//109 128//124 139//124
f 124//125 139//125 138//125 145//125 125//125
f 145//126 144//126 148//126 122//126 125//126
f 122//127 148//127 149//127 123//127
f 56//128 123//128 149//128 131//128
f 56//129 131//129 130//129 57//129
f 121//130 57//130 130//130 127//130
f 89//131 88//131 85//131 91//131
f 150//132 28//132 151//132 152//132
f 1//133 20//133 153//133 154//133
f 20//134 1//134 4//134 155//134
f 156//135 149//135 148//135 157//135
f 143//136 158//136 159//136 157//136
f 143//137 157//137 148//137 144//137
f 137//138 142//138 158//138 143//138
f 156//139 157//139 159//139 160//139
f 156//140 160//140 133//140 132//140
f 149//141 156//141 132//141 131//141
f 20//142 161//142 162//142 163//142
f 5//143 10//143 164//143 165//143
f 28//144 150//144 166//144 167//144
f 163//145 162//145 168//145 169//145
f 162//146 165//146 170//146 168//146
f 167//147 166//147 171//147 172//147
f 161//148 5//148 165//148 162//148
f 10//149 28//149 167//149 164//149
f 150//150 20//150 163//150 166//150
f 164//151 167//151 172//151 173//151
f 165//152 164//152 173//152 170//152
f 166//153 163//153 169//153 171//153
f 18//154 174//154 175//154 176//154
f 4//155 3//155 177//155 178//155
f 174//156 155//156 179//156 175//156
f 161//157 20//157 155//157 174//157
f 5//158 161//158 174//158 18//158
f 2//159 6//159 19//159 3//159
f 155//160 4//160 178//160 179//160
f 3//161 19//161 180//161 177//161
f 19//162 18//162 176//162 180//162
f 27//163 26//163 181//163 182//163
f 13//164 27//164 182//164 183//164
f 153//165 14//165 184//165 185//165
f 2//166 1//166 154//166 26//166
f 20//167 11//167 14//167 153//167
f 12//168 15//168 27//168 13//168
f 181//169 186//169 187//169 188//169
f 184//170 183//170 189//170 190//170
f 154//171 153//171 185//171 186//171
f 14//172 13//172 183//172 184//172
f 26//173 154//173 186//173 181//173
f 183//174 182//174 191//174 189//174
f 182//175 181//175 188//175 191//175
f 21//176 152//176 192//176 193//176
f 194//177 30//177 195//177 196//177
f 151//178 194//178 196//178 197//178
f 28//179 23//179 194//179 151//179
f 23//180 12//180 30//180 194//180
f 20//181 150//181 152//181 21//181
f 197//182 196//182 198//182 199//182
f 200//183 193//183 201//183 202//183
f 195//184 200//184 202//184 203//184
f 152//185 151//185 197//185 192//185
f 30//186 22//186 200//186 195//186
f 22//187 21//187 193//187 200//187
f 204//188 199//188 205//188 206//188
f 201//189 204//189 206//189 207//189
f 196//190 195//190 203//190 198//190
f 193//191 192//191 204//191 201//191
f 192//192 197//192 199//192 204//192
f 203//193 202//193 208//193 209//193
f 202//194 201//194 207//194 208//194
f 7//195 35//195 31//195 8//195
