# Blender v2.78 (sub 0) OBJ File: ''
# www.blender.org
mtllib sphere-1.mtl
o Circle
v 0.707107 -0.035015 0.707106
v 0.831470 -0.035015 0.555570
v 0.831470 0.076292 0.555570
v 0.707107 0.076292 0.707106
v -0.980785 -0.035015 -0.195090
v -1.000000 -0.035015 -0.000000
v -1.000000 0.076292 0.000000
v -0.980785 0.076292 -0.195090
v 0.923880 -0.035015 0.382683
v 0.923880 0.076292 0.382683
v -0.980785 -0.035015 0.195090
v -0.980785 0.076292 0.195090
v 0.980785 -0.035015 0.195089
v 0.980785 0.076292 0.195089
v -0.923880 -0.035015 0.382683
v -0.923880 0.076292 0.382683
v 1.000000 -0.035015 -0.000001
v 1.000000 0.076292 -0.000001
v -0.831470 -0.035015 0.555570
v -0.831470 0.076292 0.555570
v 0.980785 -0.035015 -0.195091
v 0.980785 0.076292 -0.195091
v -0.707107 -0.035015 0.707107
v -0.707107 0.076292 0.707107
v 0.923879 -0.035015 -0.382684
v 0.923879 0.076292 -0.382684
v -0.555570 -0.035015 0.831470
v -0.555570 0.076292 0.831470
v 0.831469 -0.035015 -0.555571
v 0.831469 0.076292 -0.555571
v -0.382683 -0.035015 0.923880
v -0.382683 0.076292 0.923880
v 0.000000 -0.035015 -1.000000
v -0.195090 -0.035015 -0.980785
v -0.195090 0.076292 -0.980785
v 0.000000 0.076292 -1.000000
v 0.707106 -0.035015 -0.707108
v 0.707106 0.076292 -0.707108
v -0.195090 -0.035015 0.980785
v -0.195090 0.076292 0.980785
v -0.382683 -0.035015 -0.923880
v -0.382683 0.076292 -0.923880
v 0.555569 -0.035015 -0.831470
v 0.555569 0.076292 -0.831470
v 0.000000 -0.035015 1.000000
v 0.000000 0.076292 1.000000
v -0.555570 -0.035015 -0.831470
v -0.555570 0.076292 -0.831470
v 0.382682 -0.035015 -0.923880
v 0.382682 0.076292 -0.923880
v 0.195091 -0.035015 0.980785
v 0.195091 0.076292 0.980785
v -0.707107 -0.035015 -0.707107
v -0.707107 0.076292 -0.707107
v 0.195089 -0.035015 -0.980786
v 0.195089 0.076292 -0.980786
v 0.382684 -0.035015 0.923879
v 0.382684 0.076292 0.923879
v -0.831470 -0.035015 -0.555570
v -0.831470 0.076292 -0.555570
v 0.555571 -0.035015 0.831469
v 0.555571 0.076292 0.831469
v -0.923880 -0.035015 -0.382683
v -0.923880 0.076292 -0.382683
vn 0.7730 0.0000 0.6344
vn -0.9952 0.0000 -0.0980
vn 0.8819 0.0000 0.4714
vn -0.9952 0.0000 0.0980
vn 0.9569 0.0000 0.2903
vn -0.9569 -0.0000 0.2903
vn 0.9952 0.0000 0.0980
vn -0.8819 0.0000 0.4714
vn 0.9952 0.0000 -0.0980
vn -0.7730 0.0000 0.6344
vn 0.9569 0.0000 -0.2903
vn -0.6344 0.0000 0.7730
vn 0.8819 0.0000 -0.4714
vn -0.4714 0.0000 0.8819
vn -0.0980 0.0000 -0.9952
vn 0.7730 0.0000 -0.6344
vn -0.2903 0.0000 0.9569
vn -0.2903 0.0000 -0.9569
vn 0.6344 0.0000 -0.7730
vn -0.0980 0.0000 0.9952
vn -0.4714 0.0000 -0.8819
vn 0.4714 0.0000 -0.8819
vn 0.0980 0.0000 0.9952
vn -0.6344 0.0000 -0.7730
vn 0.2903 0.0000 -0.9569
vn 0.2903 0.0000 0.9569
vn -0.7730 0.0000 -0.6344
vn 0.0980 0.0000 -0.9952
vn 0.4714 0.0000 0.8819
vn -0.8819 0.0000 -0.4714
vn 0.6344 0.0000 0.7730
vn -0.9569 0.0000 -0.2903
usemtl Material.001
s 1
f 1//1 2//1 3//1 4//1
f 5//2 6//2 7//2 8//2
f 2//3 9//3 10//3 3//3
f 6//4 11//4 12//4 7//4
f 9//5 13//5 14//5 10//5
f 11//6 15//6 16//6 12//6
f 13//7 17//7 18//7 14//7
f 15//8 19//8 20//8 16//8
f 17//9 21//9 22//9 18//9
f 19//10 23//10 24//10 20//10
f 21//11 25//11 26//11 22//11
f 23//12 27//12 28//12 24//12
f 25//13 29//13 30//13 26//13
f 27//14 31//14 32//14 28//14
f 33//15 34//15 35//15 36//15
f 29//16 37//16 38//16 30//16
f 31//17 39//17 40//17 32//17
f 34//18 41//18 42//18 35//18
f 37//19 43//19 44//19 38//19
f 39//20 45//20 46//20 40//20
f 41//21 47//21 48//21 42//21
f 43//22 49//22 50//22 44//22
f 45//23 51//23 52//23 46//23
f 47//24 53//24 54//24 48//24
f 49//25 55//25 56//25 50//25
f 51//26 57//26 58//26 52//26
f 53//27 59//27 60//27 54//27
f 55//28 33//28 36//28 56//28
f 57//29 61//29 62//29 58//29
f 59//30 63//30 64//30 60//30
f 61//31 1//31 4//31 62//31
f 63//32 5//32 8//32 64//32
o Circle.001
v 0.707107 -0.035015 0.707106
v 0.707107 0.076292 0.707106
v 0.831470 0.076292 0.555570
v 0.831470 -0.035015 0.555570
v -0.980785 -0.035015 -0.195090
v -0.980785 0.076292 -0.195090
v -1.000000 0.076292 0.000000
v -1.000000 -0.035015 -0.000000
v 0.923880 0.076292 0.382683
v 0.923880 -0.035015 0.382683
v -0.980785 0.076292 0.195090
v -0.980785 -0.035015 0.195090
v 0.980785 0.076292 0.195089
v 0.980785 -0.035015 0.195089
v -0.923880 0.076292 0.382683
v -0.923880 -0.035015 0.382683
v 1.000000 0.076292 -0.000001
v 1.000000 -0.035015 -0.000001
v -0.831470 0.076292 0.555570
v -0.831470 -0.035015 0.555570
v 0.980785 0.076292 -0.195091
v 0.980785 -0.035015 -0.195091
v -0.707107 0.076292 0.707107
v -0.707107 -0.035015 0.707107
v 0.923879 0.076292 -0.382684
v 0.923879 -0.035015 -0.382684
v -0.555570 0.076292 0.831470
v -0.555570 -0.035015 0.831470
v 0.831469 0.076292 -0.555571
v 0.831469 -0.035015 -0.555571
v -0.382683 0.076292 0.923880
v -0.382683 -0.035015 0.923880
v 0.000000 -0.035015 -1.000000
v 0.000000 0.076292 -1.000000
v -0.195090 0.076292 -0.980785
v -0.195090 -0.035015 -0.980785
v 0.707106 0.076292 -0.707108
v 0.707106 -0.035015 -0.707108
v -0.195090 0.076292 0.980785
v -0.195090 -0.035015 0.980785
v -0.382683 0.076292 -0.923880
v -0.382683 -0.035015 -0.923880
v 0.555569 0.076292 -0.831470
v 0.555569 -0.035015 -0.831470
v 0.000000 0.076292 1.000000
v 0.000000 -0.035015 1.000000
v -0.555570 0.076292 -0.831470
v -0.555570 -0.035015 -0.831470
v 0.382682 0.076292 -0.923880
v 0.382682 -0.035015 -0.923880
v 0.195091 0.076292 0.980785
v 0.195091 -0.035015 0.980785
v -0.707107 0.076292 -0.707107
v -0.707107 -0.035015 -0.707107
v 0.195089 0.076292 -0.980786
v 0.195089 -0.035015 -0.980786
v 0.382684 0.076292 0.923879
v 0.382684 -0.035015 0.923879
v -0.831470 0.076292 -0.555570
v -0.831470 -0.035015 -0.555570
v 0.555571 0.076292 0.831469
v 0.555571 -0.035015 0.831469
v -0.923880 0.076292 -0.382683
v -0.923880 -0.035015 -0.382683
vn -0.7730 0.0000 -0.6344
vn 0.9952 -0.0000 0.0980
vn -0.8819 0.0000 -0.4714
vn 0.9952 0.0000 -0.0980
vn -0.9569 -0.0000 -0.2903
vn 0.9569 0.0000 -0.2903
vn -0.9952 0.0000 -0.0980
vn 0.8819 0.0000 -0.4714
vn -0.9952 -0.0000 0.0980
vn 0.7730 0.0000 -0.6344
vn -0.9569 -0.0000 0.2903
vn 0.6344 0.0000 -0.7730
vn -0.8819 0.0000 0.4714
vn 0.4714 0.0000 -0.8819
vn 0.0980 0.0000 0.9952
vn -0.7730 0.0000 0.6344
vn 0.2903 0.0000 -0.9569
vn 0.2903 0.0000 0.9569
vn -0.6344 0.0000 0.7730
vn 0.0980 0.0000 -0.9952
vn 0.4714 0.0000 0.8819
vn -0.4714 0.0000 0.8819
vn -0.0980 0.0000 -0.9952
vn 0.6344 0.0000 0.7730
vn -0.2903 0.0000 0.9569
vn -0.2903 0.0000 -0.9569
vn 0.7730 0.0000 0.6344
vn -0.0980 0.0000 0.9952
vn -0.4714 0.0000 -0.8819
vn 0.8819 0.0000 0.4714
vn -0.6344 0.0000 -0.7730
vn 0.9569 0.0000 0.2903
usemtl Material.001
s 1
f 65//33 66//33 67//33 68//33
f 69//34 70//34 71//34 72//34
f 68//35 67//35 73//35 74//35
f 72//36 71//36 75//36 76//36
f 74//37 73//37 77//37 78//37
f 76//38 75//38 79//38 80//38
f 78//39 77//39 81//39 82//39
f 80//40 79//40 83//40 84//40
f 82//41 81//41 85//41 86//41
f 84//42 83//42 87//42 88//42
f 86//43 85//43 89//43 90//43
f 88//44 87//44 91//44 92//44
f 90//45 89//45 93//45 94//45
f 92//46 91//46 95//46 96//46
f 97//47 98//47 99//47 100//47
f 94//48 93//48 101//48 102//48
f 96//49 95//49 103//49 104//49
f 100//50 99//50 105//50 106//50
f 102//51 101//51 107//51 108//51
f 104//52 103//52 109//52 110//52
f 106//53 105//53 111//53 112//53
f 108//54 107//54 113//54 114//54
f 110//55 109//55 115//55 116//55
f 112//56 111//56 117//56 118//56
f 114//57 113//57 119//57 120//57
f 116//58 115//58 121//58 122//58
f 118//59 117//59 123//59 124//59
f 120//60 119//60 98//60 97//60
f 122//61 121//61 125//61 126//61
f 124//62 123//62 127//62 128//62
f 126//63 125//63 66//63 65//63
f 128//64 127//64 70//64 69//64
