# Blender v2.78 (sub 0) OBJ File: 'sphere-3.blend'
# www.blender.org
mtllib sphere-2.mtl
o Circle.012
v 0.707107 -0.035015 0.707106
v 0.831470 -0.035015 0.555570
v 0.831470 0.076292 0.555570
v 0.707107 0.076292 0.707106
v -0.980785 -0.035015 -0.195090
v -1.000000 -0.035015 -0.000000
v -1.000000 0.076292 0.000000
v -0.980785 0.076292 -0.195090
v 0.923880 -0.035015 0.382683
v 0.923880 0.076292 0.382683
v -0.980785 -0.035015 0.195090
v -0.980785 0.076292 0.195090
v 0.980785 -0.035015 0.195089
v 0.980785 0.076292 0.195089
v -0.923880 -0.035015 0.382683
v -0.923880 0.076292 0.382683
v 1.000000 -0.035015 -0.000001
v 1.000000 0.076292 -0.000001
v -0.831470 -0.035015 0.555570
v -0.831470 0.076292 0.555570
v 0.980785 -0.035015 -0.195091
v 0.980785 0.076292 -0.195091
v -0.707107 -0.035015 0.707107
v -0.707107 0.076292 0.707107
v 0.923879 -0.035015 -0.382684
v 0.923879 0.076292 -0.382684
v -0.555570 -0.035015 0.831470
v -0.555570 0.076292 0.831470
v 0.831469 -0.035015 -0.555571
v 0.831469 0.076292 -0.555571
v -0.382683 -0.035015 0.923880
v -0.382683 0.076292 0.923880
v 0.000000 -0.035015 -1.000000
v -0.195090 -0.035015 -0.980785
v -0.195090 0.076292 -0.980785
v 0.000000 0.076292 -1.000000
v 0.707106 -0.035015 -0.707108
v 0.707106 0.076292 -0.707108
v -0.195090 -0.035015 0.980785
v -0.195090 0.076292 0.980785
v -0.382683 -0.035015 -0.923880
v -0.382683 0.076292 -0.923880
v 0.555569 -0.035015 -0.831470
v 0.555569 0.076292 -0.831470
v 0.000000 -0.035015 1.000000
v 0.000000 0.076292 1.000000
v -0.555570 -0.035015 -0.831470
v -0.555570 0.076292 -0.831470
v 0.382682 -0.035015 -0.923880
v 0.382682 0.076292 -0.923880
v 0.195091 -0.035015 0.980785
v 0.195091 0.076292 0.980785
v -0.707107 -0.035015 -0.707107
v -0.707107 0.076292 -0.707107
v 0.195089 -0.035015 -0.980786
v 0.195089 0.076292 -0.980786
v 0.382684 -0.035015 0.923879
v 0.382684 0.076292 0.923879
v -0.831470 -0.035015 -0.555570
v -0.831470 0.076292 -0.555570
v 0.555571 -0.035015 0.831469
v 0.555571 0.076292 0.831469
v -0.923880 -0.035015 -0.382683
v -0.923880 0.076292 -0.382683
vn 0.7730 0.0000 0.6344
vn -0.9952 0.0000 -0.0980
vn 0.8819 0.0000 0.4714
vn -0.9952 0.0000 0.0980
vn 0.9569 0.0000 0.2903
vn -0.9569 -0.0000 0.2903
vn 0.9952 0.0000 0.0980
vn -0.8819 0.0000 0.4714
vn 0.9952 0.0000 -0.0980
vn -0.7730 0.0000 0.6344
vn 0.9569 0.0000 -0.2903
vn -0.6344 0.0000 0.7730
vn 0.8819 0.0000 -0.4714
vn -0.4714 0.0000 0.8819
vn -0.0980 0.0000 -0.9952
vn 0.7730 0.0000 -0.6344
vn -0.2903 0.0000 0.9569
vn -0.2903 0.0000 -0.9569
vn 0.6344 0.0000 -0.7730
vn -0.0980 0.0000 0.9952
vn -0.4714 0.0000 -0.8819
vn 0.4714 0.0000 -0.8819
vn 0.0980 0.0000 0.9952
vn -0.6344 0.0000 -0.7730
vn 0.2903 0.0000 -0.9569
vn 0.2903 0.0000 0.9569
vn -0.7730 0.0000 -0.6344
vn 0.0980 0.0000 -0.9952
vn 0.4714 0.0000 0.8819
vn -0.8819 0.0000 -0.4714
vn 0.6344 0.0000 0.7730
vn -0.9569 0.0000 -0.2903
usemtl Material.011
s 1
f 1//1 2//1 3//1 4//1
f 5//2 6//2 7//2 8//2
f 2//3 9//3 10//3 3//3
f 6//4 11//4 12//4 7//4
f 9//5 13//5 14//5 10//5
f 11//6 15//6 16//6 12//6
f 13//7 17//7 18//7 14//7
f 15//8 19//8 20//8 16//8
f 17//9 21//9 22//9 18//9
f 19//10 23//10 24//10 20//10
f 21//11 25//11 26//11 22//11
f 23//12 27//12 28//12 24//12
f 25//13 29//13 30//13 26//13
f 27//14 31//14 32//14 28//14
f 33//15 34//15 35//15 36//15
f 29//16 37//16 38//16 30//16
f 31//17 39//17 40//17 32//17
f 34//18 41//18 42//18 35//18
f 37//19 43//19 44//19 38//19
f 39//20 45//20 46//20 40//20
f 41//21 47//21 48//21 42//21
f 43//22 49//22 50//22 44//22
f 45//23 51//23 52//23 46//23
f 47//24 53//24 54//24 48//24
f 49//25 55//25 56//25 50//25
f 51//26 57//26 58//26 52//26
f 53//27 59//27 60//27 54//27
f 55//28 33//28 36//28 56//28
f 57//29 61//29 62//29 58//29
f 59//30 63//30 64//30 60//30
f 61//31 1//31 4//31 62//31
f 63//32 5//32 8//32 64//32
o Circle.011
v 0.610718 -0.784933 0.047038
v 0.751871 -0.650587 0.068401
v 0.734832 -0.650175 0.178395
v 0.593679 -0.784521 0.157033
v -0.928624 0.326149 -0.195576
v -0.972273 0.135132 -0.201622
v -0.989312 0.135544 -0.091628
v -0.945663 0.326561 -0.085582
v 0.864426 -0.490971 0.085239
v 0.847387 -0.490559 0.195233
v -0.978262 -0.060811 -0.201816
v -0.995301 -0.060399 -0.091822
v 0.944059 -0.312219 0.096905
v 0.927020 -0.311808 0.206899
v -0.946361 -0.254149 -0.196151
v -0.963400 -0.253737 -0.086157
v 0.987708 -0.121202 0.102952
v 0.970669 -0.120790 0.212946
v -0.877795 -0.437452 -0.184843
v -0.894833 -0.437041 -0.074849
v 0.993697 0.074741 0.103146
v 0.976658 0.075153 0.213140
v -0.775199 -0.603678 -0.168328
v -0.792237 -0.603266 -0.058334
v 0.961795 0.268079 0.097480
v 0.944756 0.268491 0.207474
v -0.642515 -0.746436 -0.147240
v -0.659554 -0.746024 -0.037246
v 0.893229 0.451383 0.086172
v 0.876190 0.451794 0.196167
v -0.484844 -0.860242 -0.122390
v -0.501883 -0.859830 -0.012395
v 0.134937 0.998710 -0.033341
v -0.058694 1.004658 -0.063358
v -0.075733 1.005070 0.046636
v 0.117898 0.999122 0.076653
v 0.790632 0.617607 0.069657
v 0.773594 0.618019 0.179651
v -0.308244 -0.940721 -0.094732
v -0.325283 -0.940309 0.015263
v -0.249773 0.972266 -0.092837
v -0.266812 0.972677 0.017158
v 0.657949 0.760366 0.048569
v 0.640910 0.760778 0.158563
v -0.119502 -0.984781 -0.065329
v -0.136541 -0.984369 0.044665
v -0.430957 0.902777 -0.120643
v -0.447996 0.903189 -0.010649
v 0.500278 0.874171 0.023719
v 0.483239 0.874583 0.133713
v 0.074129 -0.990729 -0.035312
v 0.057091 -0.990317 0.074682
v -0.595283 0.798863 -0.145709
v -0.612322 0.799274 -0.035715
v 0.323678 0.954650 -0.003939
v 0.306639 0.955062 0.106055
v 0.265209 -0.958337 -0.005834
v 0.248170 -0.957925 0.104160
v -0.736436 0.664516 -0.167072
v -0.753475 0.664928 -0.057077
v 0.446392 -0.888848 0.021972
v 0.429354 -0.888436 0.131967
v -0.848991 0.504900 -0.183910
v -0.866030 0.505312 -0.073915
vn 0.6768 -0.7282 0.1076
vn -0.9628 0.2248 -0.1500
vn 0.8043 -0.5805 0.1268
vn -0.9877 0.0303 -0.1531
vn 0.9009 -0.4105 0.1411
vn -0.9747 -0.1652 -0.1504
vn 0.9628 -0.2248 0.1500
vn -0.9242 -0.3545 -0.1418
vn 0.9877 -0.0303 0.1531
vn -0.8383 -0.5301 -0.1279
vn 0.9747 0.1652 0.1504
vn -0.7200 -0.6853 -0.1090
vn 0.9242 0.3545 0.1418
vn -0.5742 -0.8142 -0.0859
vn 0.0306 0.9995 0.0010
vn 0.8382 0.5301 0.1279
vn -0.4062 -0.9118 -0.0595
vn -0.1627 0.9862 -0.0289
vn 0.7200 0.6853 0.1090
vn -0.2227 -0.9744 -0.0308
vn -0.3498 0.9351 -0.0577
vn 0.5742 0.8142 0.0859
vn -0.0306 -0.9995 -0.0010
vn -0.5234 0.8479 -0.0842
vn 0.4062 0.9118 0.0595
vn 0.1627 -0.9862 0.0289
vn -0.6768 0.7282 -0.1076
vn 0.2227 0.9744 0.0308
vn 0.3498 -0.9351 0.0577
vn -0.8043 0.5805 -0.1268
vn 0.5234 -0.8479 0.0842
vn -0.9009 0.4105 -0.1411
usemtl Material.010
s 1
f 65//33 66//33 67//33 68//33
f 69//34 70//34 71//34 72//34
f 66//35 73//35 74//35 67//35
f 70//36 75//36 76//36 71//36
f 73//37 77//37 78//37 74//37
f 75//38 79//38 80//38 76//38
f 77//39 81//39 82//39 78//39
f 79//40 83//40 84//40 80//40
f 81//41 85//41 86//41 82//41
f 83//42 87//42 88//42 84//42
f 85//43 89//43 90//43 86//43
f 87//44 91//44 92//44 88//44
f 89//45 93//45 94//45 90//45
f 91//46 95//46 96//46 92//46
f 97//47 98//47 99//47 100//47
f 93//48 101//48 102//48 94//48
f 95//49 103//49 104//49 96//49
f 98//50 105//50 106//50 99//50
f 101//51 107//51 108//51 102//51
f 103//52 109//52 110//52 104//52
f 105//53 111//53 112//53 106//53
f 107//54 113//54 114//54 108//54
f 109//55 115//55 116//55 110//55
f 111//56 117//56 118//56 112//56
f 113//57 119//57 120//57 114//57
f 115//58 121//58 122//58 116//58
f 117//59 123//59 124//59 118//59
f 119//60 97//60 100//60 120//60
f 121//61 125//61 126//61 122//61
f 123//62 127//62 128//62 124//62
f 125//63 65//63 68//63 126//63
f 127//64 69//64 72//64 128//64
o Circle.010
v 0.610718 -0.784933 0.047038
v 0.593679 -0.784521 0.157033
v 0.734832 -0.650175 0.178395
v 0.751871 -0.650587 0.068401
v -0.928624 0.326149 -0.195576
v -0.945663 0.326561 -0.085582
v -0.989312 0.135544 -0.091628
v -0.972273 0.135132 -0.201622
v 0.847387 -0.490559 0.195233
v 0.864426 -0.490971 0.085239
v -0.995301 -0.060399 -0.091822
v -0.978262 -0.060811 -0.201816
v 0.927020 -0.311808 0.206899
v 0.944059 -0.312219 0.096905
v -0.963400 -0.253737 -0.086157
v -0.946361 -0.254149 -0.196151
v 0.970669 -0.120790 0.212946
v 0.987708 -0.121202 0.102952
v -0.894833 -0.437041 -0.074849
v -0.877795 -0.437452 -0.184843
v 0.976658 0.075153 0.213140
v 0.993697 0.074741 0.103146
v -0.792237 -0.603266 -0.058334
v -0.775199 -0.603678 -0.168328
v 0.944756 0.268491 0.207474
v 0.961795 0.268079 0.097480
v -0.659554 -0.746024 -0.037246
v -0.642515 -0.746436 -0.147240
v 0.876190 0.451794 0.196167
v 0.893229 0.451383 0.086172
v -0.501883 -0.859830 -0.012395
v -0.484844 -0.860242 -0.122390
v 0.134937 0.998710 -0.033341
v 0.117898 0.999122 0.076653
v -0.075733 1.005070 0.046636
v -0.058694 1.004658 -0.063358
v 0.773594 0.618019 0.179651
v 0.790632 0.617607 0.069657
v -0.325283 -0.940309 0.015263
v -0.308244 -0.940721 -0.094732
v -0.266812 0.972677 0.017158
v -0.249773 0.972266 -0.092837
v 0.640910 0.760778 0.158563
v 0.657949 0.760366 0.048569
v -0.136541 -0.984369 0.044665
v -0.119502 -0.984781 -0.065329
v -0.447996 0.903189 -0.010649
v -0.430957 0.902777 -0.120643
v 0.483239 0.874583 0.133713
v 0.500278 0.874171 0.023719
v 0.057091 -0.990317 0.074682
v 0.074129 -0.990729 -0.035312
v -0.612322 0.799274 -0.035715
v -0.595283 0.798863 -0.145709
v 0.306639 0.955062 0.106055
v 0.323678 0.954650 -0.003939
v 0.248170 -0.957925 0.104160
v 0.265209 -0.958337 -0.005834
v -0.753475 0.664928 -0.057077
v -0.736436 0.664516 -0.167072
v 0.429354 -0.888436 0.131967
v 0.446392 -0.888848 0.021972
v -0.866030 0.505312 -0.073915
v -0.848991 0.504900 -0.183910
vn -0.6768 0.7282 -0.1076
vn 0.9628 -0.2248 0.1500
vn -0.8043 0.5805 -0.1268
vn 0.9877 -0.0303 0.1531
vn -0.9009 0.4105 -0.1411
vn 0.9747 0.1652 0.1504
vn -0.9628 0.2248 -0.1500
vn 0.9242 0.3545 0.1418
vn -0.9877 0.0303 -0.1531
vn 0.8383 0.5301 0.1279
vn -0.9747 -0.1652 -0.1504
vn 0.7200 0.6853 0.1090
vn -0.9242 -0.3545 -0.1418
vn 0.5742 0.8142 0.0859
vn -0.0306 -0.9995 -0.0010
vn -0.8382 -0.5301 -0.1279
vn 0.4062 0.9118 0.0595
vn 0.1627 -0.9862 0.0289
vn -0.7200 -0.6853 -0.1090
vn 0.2227 0.9744 0.0308
vn 0.3498 -0.9351 0.0577
vn -0.5742 -0.8142 -0.0859
vn 0.0306 0.9995 0.0010
vn 0.5234 -0.8479 0.0842
vn -0.4062 -0.9118 -0.0595
vn -0.1627 0.9862 -0.0289
vn 0.6768 -0.7282 0.1076
vn -0.2227 -0.9744 -0.0308
vn -0.3498 0.9351 -0.0577
vn 0.8043 -0.5805 0.1268
vn -0.5234 0.8479 -0.0842
vn 0.9009 -0.4105 0.1411
usemtl Material.010
s 1
f 129//65 130//65 131//65 132//65
f 133//66 134//66 135//66 136//66
f 132//67 131//67 137//67 138//67
f 136//68 135//68 139//68 140//68
f 138//69 137//69 141//69 142//69
f 140//70 139//70 143//70 144//70
f 142//71 141//71 145//71 146//71
f 144//72 143//72 147//72 148//72
f 146//73 145//73 149//73 150//73
f 148//74 147//74 151//74 152//74
f 150//75 149//75 153//75 154//75
f 152//76 151//76 155//76 156//76
f 154//77 153//77 157//77 158//77
f 156//78 155//78 159//78 160//78
f 161//79 162//79 163//79 164//79
f 158//80 157//80 165//80 166//80
f 160//81 159//81 167//81 168//81
f 164//82 163//82 169//82 170//82
f 166//83 165//83 171//83 172//83
f 168//84 167//84 173//84 174//84
f 170//85 169//85 175//85 176//85
f 172//86 171//86 177//86 178//86
f 174//87 173//87 179//87 180//87
f 176//88 175//88 181//88 182//88
f 178//89 177//89 183//89 184//89
f 180//90 179//90 185//90 186//90
f 182//91 181//91 187//91 188//91
f 184//92 183//92 162//92 161//92
f 186//93 185//93 189//93 190//93
f 188//94 187//94 191//94 192//94
f 190//95 189//95 130//95 129//95
f 192//96 191//96 134//96 133//96
o Circle.009
v 0.707107 -0.035015 0.707106
v 0.707107 0.076292 0.707106
v 0.831470 0.076292 0.555570
v 0.831470 -0.035015 0.555570
v -0.980785 -0.035015 -0.195090
v -0.980785 0.076292 -0.195090
v -1.000000 0.076292 0.000000
v -1.000000 -0.035015 -0.000000
v 0.923880 0.076292 0.382683
v 0.923880 -0.035015 0.382683
v -0.980785 0.076292 0.195090
v -0.980785 -0.035015 0.195090
v 0.980785 0.076292 0.195089
v 0.980785 -0.035015 0.195089
v -0.923880 0.076292 0.382683
v -0.923880 -0.035015 0.382683
v 1.000000 0.076292 -0.000001
v 1.000000 -0.035015 -0.000001
v -0.831470 0.076292 0.555570
v -0.831470 -0.035015 0.555570
v 0.980785 0.076292 -0.195091
v 0.980785 -0.035015 -0.195091
v -0.707107 0.076292 0.707107
v -0.707107 -0.035015 0.707107
v 0.923879 0.076292 -0.382684
v 0.923879 -0.035015 -0.382684
v -0.555570 0.076292 0.831470
v -0.555570 -0.035015 0.831470
v 0.831469 0.076292 -0.555571
v 0.831469 -0.035015 -0.555571
v -0.382683 0.076292 0.923880
v -0.382683 -0.035015 0.923880
v 0.000000 -0.035015 -1.000000
v 0.000000 0.076292 -1.000000
v -0.195090 0.076292 -0.980785
v -0.195090 -0.035015 -0.980785
v 0.707106 0.076292 -0.707108
v 0.707106 -0.035015 -0.707108
v -0.195090 0.076292 0.980785
v -0.195090 -0.035015 0.980785
v -0.382683 0.076292 -0.923880
v -0.382683 -0.035015 -0.923880
v 0.555569 0.076292 -0.831470
v 0.555569 -0.035015 -0.831470
v 0.000000 0.076292 1.000000
v 0.000000 -0.035015 1.000000
v -0.555570 0.076292 -0.831470
v -0.555570 -0.035015 -0.831470
v 0.382682 0.076292 -0.923880
v 0.382682 -0.035015 -0.923880
v 0.195091 0.076292 0.980785
v 0.195091 -0.035015 0.980785
v -0.707107 0.076292 -0.707107
v -0.707107 -0.035015 -0.707107
v 0.195089 0.076292 -0.980786
v 0.195089 -0.035015 -0.980786
v 0.382684 0.076292 0.923879
v 0.382684 -0.035015 0.923879
v -0.831470 0.076292 -0.555570
v -0.831470 -0.035015 -0.555570
v 0.555571 0.076292 0.831469
v 0.555571 -0.035015 0.831469
v -0.923880 0.076292 -0.382683
v -0.923880 -0.035015 -0.382683
vn -0.7730 0.0000 -0.6344
vn 0.9952 -0.0000 0.0980
vn -0.8819 0.0000 -0.4714
vn 0.9952 0.0000 -0.0980
vn -0.9569 -0.0000 -0.2903
vn 0.9569 0.0000 -0.2903
vn -0.9952 0.0000 -0.0980
vn 0.8819 0.0000 -0.4714
vn -0.9952 -0.0000 0.0980
vn 0.7730 0.0000 -0.6344
vn -0.9569 -0.0000 0.2903
vn 0.6344 0.0000 -0.7730
vn -0.8819 0.0000 0.4714
vn 0.4714 0.0000 -0.8819
vn 0.0980 0.0000 0.9952
vn -0.7730 0.0000 0.6344
vn 0.2903 0.0000 -0.9569
vn 0.2903 0.0000 0.9569
vn -0.6344 0.0000 0.7730
vn 0.0980 0.0000 -0.9952
vn 0.4714 0.0000 0.8819
vn -0.4714 0.0000 0.8819
vn -0.0980 0.0000 -0.9952
vn 0.6344 0.0000 0.7730
vn -0.2903 0.0000 0.9569
vn -0.2903 0.0000 -0.9569
vn 0.7730 0.0000 0.6344
vn -0.0980 0.0000 0.9952
vn -0.4714 0.0000 -0.8819
vn 0.8819 0.0000 0.4714
vn -0.6344 0.0000 -0.7730
vn 0.9569 0.0000 0.2903
usemtl Material.011
s 1
f 193//97 194//97 195//97 196//97
f 197//98 198//98 199//98 200//98
f 196//99 195//99 201//99 202//99
f 200//100 199//100 203//100 204//100
f 202//101 201//101 205//101 206//101
f 204//102 203//102 207//102 208//102
f 206//103 205//103 209//103 210//103
f 208//104 207//104 211//104 212//104
f 210//105 209//105 213//105 214//105
f 212//106 211//106 215//106 216//106
f 214//107 213//107 217//107 218//107
f 216//108 215//108 219//108 220//108
f 218//109 217//109 221//109 222//109
f 220//110 219//110 223//110 224//110
f 225//111 226//111 227//111 228//111
f 222//112 221//112 229//112 230//112
f 224//113 223//113 231//113 232//113
f 228//114 227//114 233//114 234//114
f 230//115 229//115 235//115 236//115
f 232//116 231//116 237//116 238//116
f 234//117 233//117 239//117 240//117
f 236//118 235//118 241//118 242//118
f 238//119 237//119 243//119 244//119
f 240//120 239//120 245//120 246//120
f 242//121 241//121 247//121 248//121
f 244//122 243//122 249//122 250//122
f 246//123 245//123 251//123 252//123
f 248//124 247//124 226//124 225//124
f 250//125 249//125 253//125 254//125
f 252//126 251//126 255//126 256//126
f 254//127 253//127 194//127 193//127
f 256//128 255//128 198//128 197//128
