# Blender v2.78 (sub 0) OBJ File: 'cylinder-3.blend'
# www.blender.org
mtllib cylinder-1.mtl
o Circle.007
v 0.334765 -0.490943 -0.214721
v 0.381101 -0.490943 -0.128033
v 0.374522 -0.439874 -0.121432
v 0.328186 -0.439874 -0.208121
v -0.274034 -0.490943 0.527104
v -0.360723 -0.490943 0.480768
v -0.367302 -0.439874 0.487368
v -0.280613 -0.439874 0.533704
v -0.179971 -0.490943 -0.427932
v -0.082149 -0.490943 -0.437566
v -0.088729 -0.439874 -0.430966
v -0.186551 -0.439874 -0.421332
v 0.272407 -0.490943 -0.290705
v 0.265828 -0.439874 -0.284104
v -0.179971 -0.490943 0.555637
v -0.186551 -0.439874 0.562237
v -0.274034 -0.490943 -0.399398
v -0.280614 -0.439874 -0.392798
v 0.196424 -0.490943 -0.353062
v 0.189844 -0.439874 -0.346462
v -0.082149 -0.490943 0.565272
v -0.088729 -0.439874 0.571872
v -0.360723 -0.490943 -0.353062
v -0.367302 -0.439874 -0.346462
v 0.109735 -0.490943 -0.399398
v 0.103155 -0.439874 -0.392798
v 0.015673 -0.490943 0.555637
v 0.009094 -0.439874 0.562237
v -0.436706 -0.490943 -0.290704
v -0.443286 -0.439874 -0.284104
v 0.015672 -0.490943 -0.427932
v 0.009093 -0.439874 -0.421332
v 0.109736 -0.490943 0.527104
v 0.103156 -0.439874 0.533704
v -0.499064 -0.490943 -0.214721
v -0.505643 -0.439874 -0.208121
v 0.196424 -0.490943 0.480767
v 0.189845 -0.439874 0.487367
v -0.545400 -0.490943 -0.128032
v -0.551980 -0.439874 -0.121432
v 0.272408 -0.490943 0.418409
v 0.265828 -0.439874 0.425010
v -0.573934 -0.490943 -0.033969
v -0.580513 -0.439874 -0.027369
v 0.334766 -0.490943 0.342426
v 0.328186 -0.439874 0.349026
v -0.583568 -0.490943 0.063853
v -0.590148 -0.439874 0.070453
v 0.381102 -0.490943 0.255737
v 0.374522 -0.439874 0.262337
v -0.573934 -0.490943 0.161675
v -0.580513 -0.439874 0.168275
v 0.409635 -0.490943 0.161674
v 0.403056 -0.439874 0.168274
v -0.545400 -0.490943 0.255737
v -0.551980 -0.439874 0.262338
v 0.419270 -0.490943 0.063852
v 0.412690 -0.439874 0.070452
v -0.499064 -0.490943 0.342426
v -0.505643 -0.439874 0.349026
v 0.409635 -0.490943 -0.033970
v 0.403056 -0.439874 -0.027370
v -0.436706 -0.490943 0.418410
v -0.443286 -0.439874 0.425010
vn -0.8688 -0.1719 0.4644
vn 0.4644 0.1721 -0.8688
vn 0.0974 -0.1152 0.9886
vn -0.7606 -0.1787 0.6242
vn 0.2866 0.1590 -0.9448
vn 0.2892 -0.0860 0.9534
vn -0.6242 -0.1787 0.7606
vn 0.0971 0.1399 -0.9854
vn 0.4707 -0.0532 0.8807
vn -0.4644 -0.1721 0.8688
vn -0.0974 0.1152 -0.9886
vn 0.6343 -0.0182 0.7729
vn -0.2866 -0.1590 0.9448
vn -0.2892 0.0860 -0.9534
vn 0.7729 0.0176 0.6343
vn -0.0970 -0.1399 0.9854
vn -0.4707 0.0532 -0.8807
vn 0.8807 0.0526 0.4707
vn -0.6343 0.0182 -0.7729
vn 0.9534 0.0855 0.2892
vn -0.7729 -0.0176 -0.6343
vn 0.9886 0.1148 0.0974
vn -0.8807 -0.0526 -0.4707
vn 0.9855 0.1395 -0.0971
vn -0.9534 -0.0855 -0.2892
vn 0.9448 0.1588 -0.2866
vn -0.9886 -0.1148 -0.0974
vn 0.8688 0.1720 -0.4644
vn -0.9855 -0.1395 0.0971
vn 0.7606 0.1787 -0.6242
vn -0.9448 -0.1588 0.2866
vn 0.6242 0.1787 -0.7606
usemtl None.002
s 1
f 1//1 2//1 3//1 4//1
f 5//2 6//2 7//2 8//2
f 9//3 10//3 11//3 12//3
f 13//4 1//4 4//4 14//4
f 15//5 5//5 8//5 16//5
f 17//6 9//6 12//6 18//6
f 19//7 13//7 14//7 20//7
f 21//8 15//8 16//8 22//8
f 23//9 17//9 18//9 24//9
f 25//10 19//10 20//10 26//10
f 27//11 21//11 22//11 28//11
f 29//12 23//12 24//12 30//12
f 31//13 25//13 26//13 32//13
f 33//14 27//14 28//14 34//14
f 35//15 29//15 30//15 36//15
f 10//16 31//16 32//16 11//16
f 37//17 33//17 34//17 38//17
f 39//18 35//18 36//18 40//18
f 41//19 37//19 38//19 42//19
f 43//20 39//20 40//20 44//20
f 45//21 41//21 42//21 46//21
f 47//22 43//22 44//22 48//22
f 49//23 45//23 46//23 50//23
f 51//24 47//24 48//24 52//24
f 53//25 49//25 50//25 54//25
f 55//26 51//26 52//26 56//26
f 57//27 53//27 54//27 58//27
f 59//28 55//28 56//28 60//28
f 61//29 57//29 58//29 62//29
f 63//30 59//30 60//30 64//30
f 2//31 61//31 62//31 3//31
f 6//32 63//32 64//32 7//32
o Circle.006
v 0.334765 -0.490943 -0.214721
v 0.328186 -0.439874 -0.208121
v 0.374522 -0.439874 -0.121432
v 0.381101 -0.490943 -0.128033
v -0.274034 -0.490943 0.527104
v -0.280613 -0.439874 0.533704
v -0.367302 -0.439874 0.487368
v -0.360723 -0.490943 0.480768
v -0.179971 -0.490943 -0.427932
v -0.186551 -0.439874 -0.421332
v -0.088729 -0.439874 -0.430966
v -0.082149 -0.490943 -0.437566
v 0.272407 -0.490943 -0.290705
v 0.265828 -0.439874 -0.284104
v -0.179971 -0.490943 0.555637
v -0.186551 -0.439874 0.562237
v -0.274034 -0.490943 -0.399398
v -0.280614 -0.439874 -0.392798
v 0.196424 -0.490943 -0.353062
v 0.189844 -0.439874 -0.346462
v -0.082149 -0.490943 0.565272
v -0.088729 -0.439874 0.571872
v -0.360723 -0.490943 -0.353062
v -0.367302 -0.439874 -0.346462
v 0.109735 -0.490943 -0.399398
v 0.103155 -0.439874 -0.392798
v 0.015673 -0.490943 0.555637
v 0.009094 -0.439874 0.562237
v -0.436706 -0.490943 -0.290704
v -0.443286 -0.439874 -0.284104
v 0.015672 -0.490943 -0.427932
v 0.009093 -0.439874 -0.421332
v 0.109736 -0.490943 0.527104
v 0.103156 -0.439874 0.533704
v -0.499064 -0.490943 -0.214721
v -0.505643 -0.439874 -0.208121
v 0.196424 -0.490943 0.480767
v 0.189845 -0.439874 0.487367
v -0.545400 -0.490943 -0.128032
v -0.551980 -0.439874 -0.121432
v 0.272408 -0.490943 0.418409
v 0.265828 -0.439874 0.425010
v -0.573934 -0.490943 -0.033969
v -0.580513 -0.439874 -0.027369
v 0.334766 -0.490943 0.342426
v 0.328186 -0.439874 0.349026
v -0.583568 -0.490943 0.063853
v -0.590148 -0.439874 0.070453
v 0.381102 -0.490943 0.255737
v 0.374522 -0.439874 0.262337
v -0.573934 -0.490943 0.161675
v -0.580513 -0.439874 0.168275
v 0.409635 -0.490943 0.161674
v 0.403056 -0.439874 0.168274
v -0.545400 -0.490943 0.255737
v -0.551980 -0.439874 0.262338
v 0.419270 -0.490943 0.063852
v 0.412690 -0.439874 0.070452
v -0.499064 -0.490943 0.342426
v -0.505643 -0.439874 0.349026
v 0.409635 -0.490943 -0.033970
v 0.403056 -0.439874 -0.027370
v -0.436706 -0.490943 0.418410
v -0.443286 -0.439874 0.425010
vn 0.8688 0.1719 -0.4644
vn -0.4644 -0.1721 0.8688
vn -0.0974 0.1152 -0.9886
vn 0.7606 0.1787 -0.6242
vn -0.2866 -0.1590 0.9448
vn -0.2892 0.0860 -0.9534
vn 0.6242 0.1787 -0.7606
vn -0.0971 -0.1399 0.9854
vn -0.4707 0.0532 -0.8807
vn 0.4644 0.1721 -0.8688
vn 0.0974 -0.1152 0.9886
vn -0.6343 0.0182 -0.7729
vn 0.2866 0.1590 -0.9448
vn 0.2892 -0.0860 0.9534
vn -0.7729 -0.0176 -0.6343
vn 0.0970 0.1399 -0.9854
vn 0.4707 -0.0532 0.8807
vn -0.8807 -0.0526 -0.4707
vn 0.6343 -0.0182 0.7729
vn -0.9534 -0.0855 -0.2892
vn 0.7729 0.0176 0.6343
vn -0.9886 -0.1148 -0.0974
vn 0.8807 0.0526 0.4707
vn -0.9855 -0.1395 0.0971
vn 0.9534 0.0855 0.2892
vn -0.9448 -0.1588 0.2866
vn 0.9886 0.1148 0.0974
vn -0.8688 -0.1720 0.4644
vn 0.9855 0.1395 -0.0971
vn -0.7606 -0.1787 0.6242
vn 0.9448 0.1588 -0.2866
vn -0.6242 -0.1787 0.7606
usemtl None.002
s 1
f 65//33 66//33 67//33 68//33
f 69//34 70//34 71//34 72//34
f 73//35 74//35 75//35 76//35
f 77//36 78//36 66//36 65//36
f 79//37 80//37 70//37 69//37
f 81//38 82//38 74//38 73//38
f 83//39 84//39 78//39 77//39
f 85//40 86//40 80//40 79//40
f 87//41 88//41 82//41 81//41
f 89//42 90//42 84//42 83//42
f 91//43 92//43 86//43 85//43
f 93//44 94//44 88//44 87//44
f 95//45 96//45 90//45 89//45
f 97//46 98//46 92//46 91//46
f 99//47 100//47 94//47 93//47
f 76//48 75//48 96//48 95//48
f 101//49 102//49 98//49 97//49
f 103//50 104//50 100//50 99//50
f 105//51 106//51 102//51 101//51
f 107//52 108//52 104//52 103//52
f 109//53 110//53 106//53 105//53
f 111//54 112//54 108//54 107//54
f 113//55 114//55 110//55 109//55
f 115//56 116//56 112//56 111//56
f 117//57 118//57 114//57 113//57
f 119//58 120//58 116//58 115//58
f 121//59 122//59 118//59 117//59
f 123//60 124//60 120//60 119//60
f 125//61 126//61 122//61 121//61
f 127//62 128//62 124//62 123//62
f 68//63 67//63 126//63 125//63
f 72//64 71//64 128//64 127//64
