# Blender v2.78 (sub 0) OBJ File: 'cylinder-3.blend'
# www.blender.org
mtllib cone-4.mtl
o Cone
v -0.020937 -0.416683 -0.946892
v 0.174153 -0.416683 -0.927677
v 0.361746 -0.416683 -0.870771
v 0.534633 -0.416683 -0.778362
v 0.686169 -0.416683 -0.653999
v 0.810532 -0.416683 -0.502462
v 0.902942 -0.416683 -0.329575
v 0.959848 -0.416683 -0.141982
v 0.979063 -0.416683 0.053108
v -0.020937 0.828999 0.053108
v 0.959848 -0.416683 0.248198
v 0.902942 -0.416683 0.435791
v 0.810532 -0.416683 0.608678
v 0.686169 -0.416683 0.760215
v 0.534633 -0.416683 0.884578
v 0.361746 -0.416683 0.976988
v 0.174153 -0.416683 1.033893
v -0.020938 -0.416683 1.053108
v -0.216028 -0.416683 1.033893
v -0.403621 -0.416683 0.976987
v -0.576508 -0.416683 0.884577
v -0.728045 -0.416683 0.760214
v -0.852407 -0.416683 0.608678
v -0.944817 -0.416683 0.435791
v -1.001723 -0.416683 0.248197
v -1.020937 -0.416683 0.053107
v -1.001722 -0.416683 -0.141983
v -0.944816 -0.416683 -0.329576
v -0.852406 -0.416683 -0.502463
v -0.728043 -0.416683 -0.654000
v -0.576506 -0.416683 -0.778362
v -0.403619 -0.416683 -0.870772
v -0.216026 -0.416683 -0.927678
vn 0.0766 0.6242 -0.7775
vn 0.2268 0.6242 -0.7476
vn 0.3683 0.6242 -0.6890
vn 0.4956 0.6242 -0.6039
vn 0.6039 0.6242 -0.4956
vn 0.6890 0.6242 -0.3683
vn 0.7476 0.6242 -0.2268
vn 0.7775 0.6242 -0.0766
vn 0.7775 0.6242 0.0766
vn 0.7476 0.6242 0.2268
vn 0.6890 0.6242 0.3683
vn 0.6039 0.6242 0.4956
vn 0.4956 0.6242 0.6039
vn 0.3683 0.6242 0.6890
vn 0.2268 0.6242 0.7476
vn 0.0766 0.6242 0.7775
vn -0.0766 0.6242 0.7775
vn -0.2268 0.6242 0.7476
vn -0.3683 0.6242 0.6890
vn -0.4956 0.6242 0.6039
vn -0.6039 0.6242 0.4956
vn -0.6890 0.6242 0.3683
vn -0.7476 0.6242 0.2268
vn -0.7775 0.6242 0.0766
vn -0.7775 0.6242 -0.0766
vn -0.7476 0.6242 -0.2268
vn -0.6890 0.6242 -0.3683
vn -0.6039 0.6242 -0.4956
vn -0.4956 0.6242 -0.6039
vn -0.3683 0.6242 -0.6890
vn -0.2268 0.6242 -0.7476
vn -0.0766 0.6242 -0.7775
vn 0.0000 -1.0000 -0.0000
usemtl None
s off
f 1//1 10//1 2//1
f 2//2 10//2 3//2
f 3//3 10//3 4//3
f 4//4 10//4 5//4
f 5//5 10//5 6//5
f 6//6 10//6 7//6
f 7//7 10//7 8//7
f 8//8 10//8 9//8
f 9//9 10//9 11//9
f 11//10 10//10 12//10
f 12//11 10//11 13//11
f 13//12 10//12 14//12
f 14//13 10//13 15//13
f 15//14 10//14 16//14
f 16//15 10//15 17//15
f 17//16 10//16 18//16
f 18//17 10//17 19//17
f 19//18 10//18 20//18
f 20//19 10//19 21//19
f 21//20 10//20 22//20
f 22//21 10//21 23//21
f 23//22 10//22 24//22
f 24//23 10//23 25//23
f 25//24 10//24 26//24
f 26//25 10//25 27//25
f 27//26 10//26 28//26
f 28//27 10//27 29//27
f 29//28 10//28 30//28
f 30//29 10//29 31//29
f 31//30 10//30 32//30
f 32//31 10//31 33//31
f 33//32 10//32 1//32
f 1//33 2//33 3//33 4//33 5//33 6//33 7//33 8//33 9//33 11//33 12//33 13//33 14//33 15//33 16//33 17//33 18//33 19//33 20//33 21//33 22//33 23//33 24//33 25//33 26//33 27//33 28//33 29//33 30//33 31//33 32//33 33//33
