# Blender v2.78 (sub 0) OBJ File: 'cylinder-3.blend'
# www.blender.org
mtllib cone-1.mtl
o Circle.001_Circle.010
v -0.024960 -0.416686 -0.944300
v -0.220051 -0.416686 -0.925085
v -0.407644 -0.416686 -0.868179
v -0.580531 -0.416686 -0.775769
v -0.732067 -0.416686 -0.651407
v -0.856430 -0.416686 -0.499870
v -0.948840 -0.416686 -0.326983
v -1.005746 -0.416686 -0.139390
v -1.024960 -0.416686 0.055700
v -1.005746 -0.416686 0.250790
v -0.948840 -0.416686 0.438384
v -0.856430 -0.416686 0.611270
v -0.732067 -0.416686 0.762807
v -0.580531 -0.416686 0.887170
v -0.407644 -0.416686 0.979580
v -0.220050 -0.416686 1.036486
v -0.024960 -0.416686 1.055700
v 0.170130 -0.416686 1.036485
v 0.357723 -0.416686 0.979580
v 0.530610 -0.416686 0.887170
v 0.682147 -0.416686 0.762807
v 0.806510 -0.416686 0.611270
v 0.898919 -0.416686 0.438383
v 0.955825 -0.416686 0.250790
v 0.975040 -0.416686 0.055699
v 0.955825 -0.416686 -0.139391
v 0.898919 -0.416686 -0.326984
v 0.806509 -0.416686 -0.499871
v 0.682145 -0.416686 -0.651407
v 0.530609 -0.416686 -0.775770
v 0.357722 -0.416686 -0.868180
v 0.170128 -0.416686 -0.925085
v -0.024960 -0.416686 -0.758302
v -0.183764 -0.416686 -0.742661
v -0.336465 -0.416686 -0.696339
v -0.477196 -0.416686 -0.621118
v -0.600547 -0.416686 -0.519886
v -0.701778 -0.416686 -0.396535
v -0.777000 -0.416686 -0.255805
v -0.823321 -0.416686 -0.103104
v -0.838962 -0.416686 0.055700
v -0.823321 -0.416686 0.214504
v -0.777000 -0.416686 0.367205
v -0.701778 -0.416686 0.507935
v -0.600547 -0.416686 0.631286
v -0.477196 -0.416686 0.732518
v -0.336465 -0.416686 0.807740
v -0.183764 -0.416686 0.854061
v -0.024960 -0.416686 0.869702
v 0.133844 -0.416686 0.854061
v 0.286545 -0.416686 0.807740
v 0.427275 -0.416686 0.732518
v 0.550626 -0.416686 0.631286
v 0.651858 -0.416686 0.507935
v 0.727079 -0.416686 0.367205
v 0.773401 -0.416686 0.214503
v 0.789041 -0.416686 0.055699
v 0.773400 -0.416686 -0.103105
v 0.727079 -0.416686 -0.255806
v 0.651857 -0.416686 -0.396536
v 0.550625 -0.416686 -0.519887
v 0.427274 -0.416686 -0.621118
v 0.286543 -0.416686 -0.696340
v 0.133842 -0.416686 -0.742661
v -0.018037 0.800763 0.049020
v -0.016070 0.750076 0.039131
v -0.017013 0.747491 0.043874
v -0.015005 0.747491 0.044483
v -0.017013 0.745900 0.049331
v -0.016070 0.800763 0.049835
v -0.010468 0.750076 0.041452
v -0.013155 0.747491 0.045472
v -0.016070 0.745900 0.049835
v -0.011533 0.747491 0.046803
v -0.015243 0.745900 0.050513
v -0.014564 0.800763 0.051340
v -0.006181 0.750076 0.045739
v -0.010202 0.747491 0.048425
v -0.014564 0.745900 0.051340
v -0.019101 0.745362 0.054372
v -0.000829 0.753554 0.046803
v -0.004745 0.750076 0.048425
v -0.014060 0.745900 0.052284
v -0.008604 0.799172 0.052284
v -0.003861 0.750076 0.051340
v -0.008604 0.747491 0.052284
v -0.013750 0.745900 0.053307
v -0.013645 0.800763 0.054372
v -0.003562 0.796587 0.054372
v -0.003562 0.750076 0.054372
v -0.008398 0.747491 0.054372
v -0.013645 0.745900 0.054372
v -0.013750 0.800763 0.055436
v -0.008604 0.747491 0.056460
v -0.013750 0.745900 0.055436
v -0.009213 0.747491 0.058468
v -0.014060 0.745900 0.056460
v -0.015243 0.800763 0.058230
v -0.011533 0.747491 0.061940
v -0.015243 0.745900 0.058230
v -0.013155 0.747491 0.063271
v -0.016070 0.745900 0.058909
v -0.013155 0.750076 0.068728
v -0.015005 0.747491 0.064260
v -0.017013 0.745900 0.059413
v -0.018037 0.800763 0.059723
v -0.017013 0.799172 0.064869
v -0.015243 0.753554 0.073769
v -0.016070 0.750076 0.069612
v -0.018037 0.745900 0.059723
v -0.019101 0.750076 0.069911
v -0.019101 0.747491 0.065075
v -0.019101 0.745900 0.059828
v -0.020166 0.800763 0.059723
v -0.024453 0.767875 0.081276
v -0.022960 0.753554 0.073769
v -0.021189 0.747491 0.064869
v -0.020166 0.745900 0.059723
v -0.021189 0.800763 0.059413
v -0.028990 0.762628 0.078245
v -0.026670 0.753554 0.072644
v -0.023197 0.747491 0.064260
v -0.021189 0.745900 0.059413
v -0.022133 0.800763 0.058909
v -0.025048 0.799172 0.063271
v -0.030089 0.753554 0.070816
v -0.027734 0.750076 0.067292
v -0.025048 0.747491 0.063271
v -0.022133 0.745900 0.058909
v -0.026670 0.747491 0.061940
v -0.022960 0.745900 0.058230
v -0.023638 0.800763 0.057403
v -0.035545 0.753554 0.065359
v -0.032021 0.750076 0.063005
v -0.028001 0.747491 0.060318
v -0.023638 0.745900 0.057403
v -0.037373 0.753554 0.061940
v -0.028990 0.747491 0.058468
v -0.024142 0.745900 0.056460
v -0.038499 0.753554 0.058230
v -0.029599 0.747491 0.056460
v -0.024453 0.745900 0.055436
v -0.038879 0.753554 0.054372
v -0.034640 0.750076 0.054372
v -0.029805 0.747491 0.054372
v -0.024558 0.745900 0.054372
v -0.024453 0.800763 0.053307
v -0.029599 0.747491 0.052284
v -0.024453 0.745900 0.053307
v -0.028990 0.747491 0.050276
v -0.024142 0.745900 0.052284
v -0.023638 0.800763 0.051340
v -0.035545 0.753554 0.043384
v -0.032021 0.750076 0.045739
v -0.028001 0.747491 0.048425
v -0.023638 0.745900 0.051340
v -0.030089 0.750076 0.043384
v -0.026670 0.747491 0.046803
v -0.022960 0.745900 0.050513
v -0.027734 0.750076 0.041452
v -0.025048 0.747491 0.045472
v -0.022133 0.745900 0.049835
v -0.025048 0.750076 0.040016
v -0.023197 0.747491 0.044483
v -0.021189 0.745900 0.049331
v -0.022960 0.753554 0.034974
v -0.021189 0.747491 0.043874
v -0.020166 0.745900 0.049020
v -0.019101 0.800763 0.048915
v -0.019101 0.747491 0.043668
v -0.019101 0.745900 0.048915
vn 0.0000 1.0000 0.0000
vn -0.0464 0.9951 0.0869
vn -0.1850 0.9565 0.2254
vn -0.0625 0.9951 0.0761
vn -0.2254 0.9566 0.1850
vn -0.0761 0.9951 0.0624
vn -0.0869 0.9951 0.0465
vn -0.0942 0.9951 0.0286
vn -0.0980 0.9951 0.0097
vn -0.0980 0.9951 -0.0097
vn -0.0942 0.9951 -0.0286
vn -0.0625 0.9951 -0.0761
vn -0.0464 0.9951 -0.0869
vn -0.1375 0.9565 -0.2572
vn -0.0286 0.9951 -0.0942
vn -0.0097 0.9951 -0.0980
vn 0.0097 0.9951 -0.0980
vn 0.1375 0.9565 -0.2572
vn 0.0464 0.9951 -0.0869
vn 0.0625 0.9951 -0.0761
vn 0.0761 0.9951 -0.0624
vn 0.0942 0.9951 -0.0286
vn 0.0980 0.9951 -0.0097
vn 0.2902 0.9565 0.0286
vn 0.0980 0.9951 0.0097
vn 0.2790 0.9565 0.0847
vn 0.0942 0.9951 0.0286
vn 0.0869 0.9951 0.0465
vn 0.0761 0.9951 0.0624
vn 0.0625 0.9951 0.0761
vn 0.0464 0.9951 0.0869
vn 0.0286 0.9951 0.0943
vn 0.0286 0.9565 0.2902
vn 0.0097 0.9951 0.0980
usemtl None
s off
f 28//1 60//1 59//1 27//1
f 15//1 47//1 46//1 14//1
f 2//1 34//1 33//1 1//1
f 29//1 61//1 60//1 28//1
f 16//1 48//1 47//1 15//1
f 3//1 35//1 34//1 2//1
f 30//1 62//1 61//1 29//1
f 17//1 49//1 48//1 16//1
f 4//1 36//1 35//1 3//1
f 31//1 63//1 62//1 30//1
f 18//1 50//1 49//1 17//1
f 5//1 37//1 36//1 4//1
f 32//1 64//1 63//1 31//1
f 19//1 51//1 50//1 18//1
f 6//1 38//1 37//1 5//1
f 1//1 33//1 64//1 32//1
f 20//1 52//1 51//1 19//1
f 7//1 39//1 38//1 6//1
f 21//1 53//1 52//1 20//1
f 8//1 40//1 39//1 7//1
f 22//1 54//1 53//1 21//1
f 9//1 41//1 40//1 8//1
f 23//1 55//1 54//1 22//1
f 10//1 42//1 41//1 9//1
f 24//1 56//1 55//1 23//1
f 11//1 43//1 42//1 10//1
f 25//1 57//1 56//1 24//1
f 12//1 44//1 43//1 11//1
f 26//1 58//1 57//1 25//1
f 13//1 45//1 44//1 12//1
f 27//1 59//1 58//1 26//1
f 14//1 46//1 45//1 13//1
f 80//2 73//2 69//2
f 73//3 75//3 74//3 72//3
f 80//4 75//4 73//4
f 75//5 79//5 78//5 74//5
f 80//6 79//6 75//6
f 80//7 83//7 79//7
f 80//8 87//8 83//8
f 80//9 92//9 87//9
f 80//10 95//10 92//10
f 80//11 97//11 95//11
f 80//12 102//12 100//12
f 80//13 105//13 102//13
f 102//14 105//14 104//14 101//14
f 80//15 110//15 105//15
f 80//16 113//16 110//16
f 80//17 118//17 113//17
f 123//18 129//18 128//18 122//18
f 80//19 129//19 123//19
f 80//20 131//20 129//20
f 80//21 136//21 131//21
f 80//22 142//22 139//22
f 80//23 146//23 142//23
f 146//24 149//24 148//24 145//24
f 80//25 149//25 146//25
f 149//26 151//26 150//26 148//26
f 80//27 151//27 149//27
f 80//28 156//28 151//28
f 80//29 159//29 156//29
f 80//30 162//30 159//30
f 80//31 165//31 162//31
f 80//32 168//32 165//32
f 168//33 171//33 170//33 167//33
f 80//34 171//34 168//34
l 66 67
l 68 69
l 86 87
l 91 92
l 94 95
l 96 97
l 99 100
l 112 113
l 114 119
l 122 117
l 124 119
l 130 131
l 135 136
l 141 142
l 158 159
l 164 165
l 65 169
o Circle_Circle.009
v -0.024960 -0.416686 -0.944300
v -0.220051 -0.416686 -0.925085
v -0.407644 -0.416686 -0.868179
v -0.580531 -0.416686 -0.775769
v -0.732067 -0.416686 -0.651407
v -0.856430 -0.416686 -0.499870
v -0.948840 -0.416686 -0.326983
v -1.005746 -0.416686 -0.139390
v -1.024960 -0.416686 0.055700
v -1.005746 -0.416686 0.250790
v -0.948840 -0.416686 0.438384
v -0.856430 -0.416686 0.611270
v -0.732067 -0.416686 0.762807
v -0.580531 -0.416686 0.887170
v -0.407644 -0.416686 0.979580
v -0.220050 -0.416686 1.036486
v -0.024960 -0.416686 1.055700
v 0.170130 -0.416686 1.036485
v 0.357723 -0.416686 0.979580
v 0.530610 -0.416686 0.887170
v 0.682147 -0.416686 0.762807
v 0.806510 -0.416686 0.611270
v 0.898919 -0.416686 0.438383
v 0.955825 -0.416686 0.250790
v 0.975040 -0.416686 0.055699
v 0.955825 -0.416686 -0.139391
v 0.898919 -0.416686 -0.326984
v 0.806509 -0.416686 -0.499871
v 0.682145 -0.416686 -0.651407
v 0.530609 -0.416686 -0.775770
v 0.357722 -0.416686 -0.868180
v 0.170128 -0.416686 -0.925085
v -0.024960 -0.416686 -0.758302
v -0.183764 -0.416686 -0.742661
v -0.336465 -0.416686 -0.696339
v -0.477196 -0.416686 -0.621118
v -0.600547 -0.416686 -0.519886
v -0.701778 -0.416686 -0.396535
v -0.777000 -0.416686 -0.255805
v -0.823321 -0.416686 -0.103104
v -0.838962 -0.416686 0.055700
v -0.823321 -0.416686 0.214504
v -0.777000 -0.416686 0.367205
v -0.701778 -0.416686 0.507935
v -0.600547 -0.416686 0.631286
v -0.477196 -0.416686 0.732518
v -0.336465 -0.416686 0.807740
v -0.183764 -0.416686 0.854061
v -0.024960 -0.416686 0.869702
v 0.133844 -0.416686 0.854061
v 0.286545 -0.416686 0.807740
v 0.427275 -0.416686 0.732518
v 0.550626 -0.416686 0.631286
v 0.651858 -0.416686 0.507935
v 0.727079 -0.416686 0.367205
v 0.773401 -0.416686 0.214503
v 0.789041 -0.416686 0.055699
v 0.773400 -0.416686 -0.103105
v 0.727079 -0.416686 -0.255806
v 0.651857 -0.416686 -0.396536
v 0.550625 -0.416686 -0.519887
v 0.427274 -0.416686 -0.621118
v 0.286543 -0.416686 -0.696340
v 0.133842 -0.416686 -0.742661
vn 0.0000 -1.0000 -0.0000
usemtl None
s off
f 199//35 198//35 230//35 231//35
f 186//35 185//35 217//35 218//35
f 173//35 172//35 204//35 205//35
f 200//35 199//35 231//35 232//35
f 187//35 186//35 218//35 219//35
f 174//35 173//35 205//35 206//35
f 201//35 200//35 232//35 233//35
f 188//35 187//35 219//35 220//35
f 175//35 174//35 206//35 207//35
f 202//35 201//35 233//35 234//35
f 189//35 188//35 220//35 221//35
f 176//35 175//35 207//35 208//35
f 203//35 202//35 234//35 235//35
f 190//35 189//35 221//35 222//35
f 177//35 176//35 208//35 209//35
f 172//35 203//35 235//35 204//35
f 191//35 190//35 222//35 223//35
f 178//35 177//35 209//35 210//35
f 192//35 191//35 223//35 224//35
f 179//35 178//35 210//35 211//35
f 193//35 192//35 224//35 225//35
f 180//35 179//35 211//35 212//35
f 194//35 193//35 225//35 226//35
f 181//35 180//35 212//35 213//35
f 195//35 194//35 226//35 227//35
f 182//35 181//35 213//35 214//35
f 196//35 195//35 227//35 228//35
f 183//35 182//35 214//35 215//35
f 197//35 196//35 228//35 229//35
f 184//35 183//35 215//35 216//35
f 198//35 197//35 229//35 230//35
f 185//35 184//35 216//35 217//35
